<mxfile host="app.diagrams.net" modified="2024-03-27T19:25:22.335Z" agent="Mozilla/5.0 (Macintosh; Intel Mac OS X 10_15_7) AppleWebKit/537.36 (KHTML, like Gecko) Chrome/123.0.0.0 Safari/537.36" etag="YP-O4MAg8wv0YFwRb8qN" version="24.2.0" type="github">
  <diagram name="Page-1" id="YMkLOt1jcK2h4WGj4CcL">
    <mxGraphModel dx="1226" dy="831" grid="0" gridSize="10" guides="1" tooltips="1" connect="1" arrows="1" fold="1" page="1" pageScale="1" pageWidth="800" pageHeight="800" background="#ffffff" math="0" shadow="0">
      <root>
        <mxCell id="0" />
        <mxCell id="1" parent="0" />
        <mxCell id="_YyVbER2g6xaAAMBrMRv-1" value="Customer Sends Email" style="whiteSpace=wrap;strokeWidth=2;labelBackgroundColor=none;sketch=1;curveFitting=1;jiggle=2;rounded=1;fillColor=#d80073;fontColor=#ffffff;strokeColor=#A50040;fillStyle=solid;" parent="1" vertex="1">
          <mxGeometry x="332" y="103" width="172.5" height="34" as="geometry" />
        </mxCell>
        <mxCell id="_YyVbER2g6xaAAMBrMRv-2" value="Krista" style="whiteSpace=wrap;strokeWidth=2;labelBackgroundColor=none;sketch=1;curveFitting=1;jiggle=2;rounded=1;fillStyle=solid;fillColor=#4fd7ed;" parent="1" vertex="1">
          <mxGeometry x="393" y="178" width="56" height="34" as="geometry" />
        </mxCell>
        <mxCell id="_YyVbER2g6xaAAMBrMRv-3" value="Attributes" style="whiteSpace=wrap;strokeWidth=2;labelBackgroundColor=none;sketch=1;curveFitting=1;jiggle=2;rounded=1;fillColor=#4FD7ED;fillStyle=solid;" parent="1" vertex="1">
          <mxGeometry x="172" y="280" width="87" height="34" as="geometry" />
        </mxCell>
        <mxCell id="_YyVbER2g6xaAAMBrMRv-4" value="Confidence Score" style="whiteSpace=wrap;strokeWidth=2;labelBackgroundColor=none;sketch=1;curveFitting=1;jiggle=2;rounded=1;fillColor=#60a917;fontColor=#ffffff;strokeColor=#2D7600;fillStyle=solid;" parent="1" vertex="1">
          <mxGeometry x="148" y="382" width="135" height="34" as="geometry" />
        </mxCell>
        <mxCell id="_YyVbER2g6xaAAMBrMRv-6" value="Resolve" style="whiteSpace=wrap;strokeWidth=2;labelBackgroundColor=none;sketch=1;curveFitting=1;jiggle=2;rounded=1;fillColor=#4fd7ed;fontColor=#050505;strokeColor=#050505;fillStyle=solid;" parent="1" vertex="1">
          <mxGeometry x="86" y="465" width="69" height="34" as="geometry" />
        </mxCell>
        <mxCell id="_YyVbER2g6xaAAMBrMRv-7" value="Agents" style="whiteSpace=wrap;strokeWidth=2;labelBackgroundColor=none;sketch=1;curveFitting=1;jiggle=2;rounded=1;fillColor=#f0a30a;fontColor=#000000;strokeColor=#000000;fillStyle=solid;" parent="1" vertex="1">
          <mxGeometry x="253" y="548" width="63" height="34" as="geometry" />
        </mxCell>
        <mxCell id="_YyVbER2g6xaAAMBrMRv-8" value="Automated Resolution" style="whiteSpace=wrap;strokeWidth=2;labelBackgroundColor=none;sketch=1;curveFitting=1;jiggle=2;rounded=1;fillColor=#4FD7ED;fillStyle=solid;" parent="1" vertex="1">
          <mxGeometry x="49" y="653" width="168" height="34" as="geometry" />
        </mxCell>
        <mxCell id="_YyVbER2g6xaAAMBrMRv-9" value="Assisted Resolution" style="whiteSpace=wrap;strokeWidth=2;labelBackgroundColor=none;sketch=1;curveFitting=1;jiggle=2;rounded=1;fillColor=#4FD7ED;fillStyle=solid;" parent="1" vertex="1">
          <mxGeometry x="290" y="616" width="135" height="34" as="geometry" />
        </mxCell>
        <mxCell id="_YyVbER2g6xaAAMBrMRv-11" value="Incoming Queries" style="curved=1;startArrow=none;endArrow=block;exitX=0.49966271335341367;exitY=0.9852941176470589;entryX=0.5074288504464286;entryY=0;rounded=1;labelBackgroundColor=none;fontColor=default;sketch=1;curveFitting=1;jiggle=2;" parent="1" source="_YyVbER2g6xaAAMBrMRv-1" target="_YyVbER2g6xaAAMBrMRv-2" edge="1">
          <mxGeometry x="-0.0403" y="59" relative="1" as="geometry">
            <Array as="points" />
            <mxPoint as="offset" />
          </mxGeometry>
        </mxCell>
        <mxCell id="_YyVbER2g6xaAAMBrMRv-12" value="Analyze and Extract Attributes" style="curved=1;startArrow=none;endArrow=block;exitX=0.005475725446428571;exitY=0.6971389077564547;entryX=0.4968570402298851;entryY=0;rounded=1;labelBackgroundColor=none;fontColor=default;sketch=1;curveFitting=1;jiggle=2;" parent="1" source="_YyVbER2g6xaAAMBrMRv-2" target="_YyVbER2g6xaAAMBrMRv-3" edge="1">
          <mxGeometry x="0.4198" y="-26" relative="1" as="geometry">
            <Array as="points">
              <mxPoint x="215" y="246" />
            </Array>
            <mxPoint as="offset" />
          </mxGeometry>
        </mxCell>
        <mxCell id="_YyVbER2g6xaAAMBrMRv-13" value="Generate Confidence Score" style="curved=1;startArrow=none;endArrow=block;exitX=0.4968570402298851;exitY=0.9852941176470589;entryX=0.49797453703703703;entryY=0;rounded=1;labelBackgroundColor=none;fontColor=default;sketch=1;curveFitting=1;jiggle=2;" parent="1" source="_YyVbER2g6xaAAMBrMRv-3" target="_YyVbER2g6xaAAMBrMRv-4" edge="1">
          <mxGeometry x="-0.2944" y="-71" relative="1" as="geometry">
            <Array as="points" />
            <mxPoint as="offset" />
          </mxGeometry>
        </mxCell>
        <mxCell id="_YyVbER2g6xaAAMBrMRv-14" value="Moderate/Low Confidence" style="curved=1;startArrow=none;endArrow=block;exitX=0.75;exitY=1;entryX=0.5013020833333334;entryY=0;rounded=1;labelBackgroundColor=none;fontColor=default;sketch=1;curveFitting=1;jiggle=2;exitDx=0;exitDy=0;" parent="1" source="_YyVbER2g6xaAAMBrMRv-4" target="_YyVbER2g6xaAAMBrMRv-5" edge="1">
          <mxGeometry x="0.22" y="46" relative="1" as="geometry">
            <Array as="points">
              <mxPoint x="322" y="438" />
            </Array>
            <mxPoint x="20" y="-36" as="offset" />
          </mxGeometry>
        </mxCell>
        <mxCell id="_YyVbER2g6xaAAMBrMRv-15" value="High Confidence" style="curved=1;startArrow=none;endArrow=block;exitX=0.25;exitY=1;entryX=0.49685801630434784;entryY=0;rounded=1;labelBackgroundColor=none;fontColor=default;sketch=1;curveFitting=1;jiggle=2;exitDx=0;exitDy=0;" parent="1" source="_YyVbER2g6xaAAMBrMRv-4" target="_YyVbER2g6xaAAMBrMRv-6" edge="1">
          <mxGeometry x="0.428" y="-43" relative="1" as="geometry">
            <Array as="points">
              <mxPoint x="119" y="433" />
            </Array>
            <mxPoint as="offset" />
          </mxGeometry>
        </mxCell>
        <mxCell id="_YyVbER2g6xaAAMBrMRv-16" value="Human Agent Confirmation" style="curved=1;startArrow=none;endArrow=block;exitX=0.5013020833333334;exitY=0.9852941176470589;rounded=1;labelBackgroundColor=none;fontColor=default;sketch=1;curveFitting=1;jiggle=2;" parent="1" source="_YyVbER2g6xaAAMBrMRv-5" edge="1">
          <mxGeometry x="0.129" y="58" relative="1" as="geometry">
            <Array as="points">
              <mxPoint x="317" y="532" />
            </Array>
            <mxPoint x="36" y="-62" as="offset" />
            <mxPoint x="282" y="545" as="targetPoint" />
          </mxGeometry>
        </mxCell>
        <mxCell id="_YyVbER2g6xaAAMBrMRv-17" value="Access More Information" style="curved=1;startArrow=none;endArrow=block;exitX=0.9946366567460317;exitY=0.24482969032129298;entryX=1.0093819754464286;entryY=0.9674738486618663;rounded=1;labelBackgroundColor=none;fontColor=default;sketch=1;curveFitting=1;jiggle=2;" parent="1" source="_YyVbER2g6xaAAMBrMRv-7" target="_YyVbER2g6xaAAMBrMRv-2" edge="1">
          <mxGeometry x="-0.0745" y="-47" relative="1" as="geometry">
            <Array as="points">
              <mxPoint x="510" y="552" />
              <mxPoint x="510" y="246" />
            </Array>
            <mxPoint as="offset" />
          </mxGeometry>
        </mxCell>
        <mxCell id="_YyVbER2g6xaAAMBrMRv-18" value="Precise AI Response" style="curved=1;startArrow=none;endArrow=block;exitX=0.5;exitY=1;entryX=0.429;entryY=-0.118;rounded=1;labelBackgroundColor=none;fontColor=default;sketch=1;curveFitting=1;jiggle=2;exitDx=0;exitDy=0;entryDx=0;entryDy=0;entryPerimeter=0;" parent="1" source="_YyVbER2g6xaAAMBrMRv-6" target="_YyVbER2g6xaAAMBrMRv-8" edge="1">
          <mxGeometry x="-1" y="49" relative="1" as="geometry">
            <Array as="points">
              <mxPoint x="40" y="554" />
            </Array>
            <mxPoint x="1" as="offset" />
            <mxPoint x="184" y="522.9957663784562" as="sourcePoint" />
            <mxPoint x="201.68359375" y="656.7" as="targetPoint" />
          </mxGeometry>
        </mxCell>
        <mxCell id="_YyVbER2g6xaAAMBrMRv-20" value="Resolve Issues" style="curved=1;startArrow=none;endArrow=block;exitX=0.49655877976190477;exitY=0.9852941176470589;entryX=0.185;entryY=-0.118;rounded=1;labelBackgroundColor=none;fontColor=default;sketch=1;curveFitting=1;jiggle=2;entryDx=0;entryDy=0;entryPerimeter=0;" parent="1" source="_YyVbER2g6xaAAMBrMRv-7" target="_YyVbER2g6xaAAMBrMRv-9" edge="1">
          <mxGeometry x="-0.4814" y="-50" relative="1" as="geometry">
            <Array as="points">
              <mxPoint x="284" y="610" />
            </Array>
            <mxPoint as="offset" />
          </mxGeometry>
        </mxCell>
        <mxCell id="_YyVbER2g6xaAAMBrMRv-21" value="Feedback" style="curved=1;startArrow=none;endArrow=block;exitX=1;exitY=0.5;entryX=1.0093819754464286;entryY=0.6389319986846168;rounded=1;labelBackgroundColor=none;fontColor=default;sketch=1;curveFitting=1;jiggle=2;exitDx=0;exitDy=0;" parent="1" source="_YyVbER2g6xaAAMBrMRv-9" target="_YyVbER2g6xaAAMBrMRv-2" edge="1">
          <mxGeometry x="0.1534" y="39" relative="1" as="geometry">
            <Array as="points">
              <mxPoint x="671" y="614" />
              <mxPoint x="673" y="248" />
            </Array>
            <mxPoint as="offset" />
          </mxGeometry>
        </mxCell>
        <mxCell id="_YyVbER2g6xaAAMBrMRv-23" value="" style="shape=image;verticalLabelPosition=bottom;labelBackgroundColor=default;verticalAlign=top;aspect=fixed;imageAspect=0;image=data:image/png,iVBORw0KGgoAAAANSUhEUgAABLAAAALQCAYAAACABYmvAAAAAXNSR0IArs4c6QAAIABJREFUeF7s3Xl8X1Wd//H3536/SbrRJUnZoS1QmrSyCAy0VWkQFKs0CWiYUWYcV3QUx5kRHWEUq+KKIuMyKjoO6oyKmaFJC9P54UJANhGQLUtpoWURStsk3dsk3+/9/LihIghtbpL77fcmed3Hwz+k557zOc9zjOTde881cSGAAAIIIIAAAggggAACCCCAAAIIIJBiAUtxbZSGAAIIIIAAAggggAACCCCAAAIIIICACLDYBAgggAACCCCAAAIIIIAAAggggAACqRYgwEr18lAcAggggAACCCCAAAIIIIAAAggggAABFnsAAQQQQAABBBBAAAEEEEAAAQQQQCDVAgRYqV4eikMAAQQQQAABBBBAAAEEEEAAAQQQIMBiDyCAAAIIIIAAAggggAACCCCAAAIIpFqAACvVy0NxCCCAAAIIIIAAAggggAACCCCAAAIEWOwBBBBAAAEEEEAAAQQQQAABBBBAAIFUCxBgpXp5KA4BBBBAAAEEEEAAAQQQQAABBBBAgACLPYAAAggggAACCCCAAAIIIIAAAgggkGoBAqxULw/FIYAAAggggAACCCCAAAIIIIAAAggQYLEHEEAAAQQQQAABBBBAAAEEEEAAAQRSLUCAlerloTgEEEAAAQQQQAABBBBAAAEEEEAAAQIs9gACCCCAAAIIIIAAAggggAACCCCAQKoFCLBSvTwUhwACCCCAAAIIIIAAAggggAACCCBAgMUeQAABBBBAAAEEEEAAAQQQQAABBBBItQABVqqXh+IQQAABBBBAAAEEEEAAAQQQQAABBAiw2AMIIIAAAggggAACCCCAAAIIIIAAAqkWIMBK9fJQHAIIIIAAAggggAACCCCAAAIIIIAAARZ7AAEEEEAAAQQQQAABBBBAAAEEEEAg1QIEWKleHopDAAEEEEAAAQQQQAABBBBAAAEEECDAYg8ggAACCCCAAAIIIIAAAggggAACCKRagAAr1ctDcQgggAACCCCAAAIIIIAAAggggAACBFjsAQQQQAABBBBAAAEEEEAAAQQQQACBVAsQYKV6eSgOAQQQQAABBBBAAAEEEEAAAQQQQIAAiz2AAAIIIIAAAggggAACCCCAAAIIIJBqAQKsVC8PxSGAAAIIIIAAAggggAACCCCAAAIIEGCxBxBAAAEEEEAAAQQQQAABBBBAAAEEUi1AgJXq5aE4BBBAAAEEEEAAAQQQQAABBBBAAAECLPYAAggggAACCCCAAAIIIIAAAggggECqBQiwUr08FIcAAggggAACCCCAAAIIIIAAAgggQIDFHkAAAQQQQAABBBBAAAEEEEAAAQQQSLUAAVaql4fiEEAAAQQQQAABBBBAAAEEEEAAAQQIsNgDCCCAAAIIIIAAAggggAACCCCAAAKpFiDASvXyUBwCCCCAAAIIIIAAAggggAACCCCAAAEWewABBBBAAAEEEEAAAQQQQAABBBBAINUCBFipXh6KQwABBBBAAAEEEEAAAQQQQAABBBAgwGIPIIAAAggggAACCCCAAAIIIIAAAgikWoAAK9XLQ3EIIIAAAggggAACCCCAAAIIIIAAAgRY7AEEEEAAAQQQQAABBBBAAAEEEEAAgVQLEGClenkoDgEEEEAAAQQQQAABBBBAAAEEEECAAIs9gAACCCCAAAIIIIAAAggggAACCCCQagECrFQvD8UhgAACCCCAAAIIIIAAAggggAACCBBgsQcQQAABBBBAAAEEEEAAAQQQQAABBFItQICV6uWhOAQQQAABBBBAAAEEEEAAAQQQQAABAiz2AAIIIIAAAggggAACCCCAAAIIIIBAqgUIsFK9PBSHAAIIIIAAAggggAACCCCAAAIIIECAxR5AAAEEEEAAAQQQQAABBBBAAAEEEEi1AAFWqpeH4hBAAAEEEEAAAQQQQAABBBBAAAEECLDYAwgggAACCCCAAAIIIIAAAggggAACqRYgwEr18lAcAggggAACCCCAAAIIIIAAAggggAABFnsAAQQQQAABBBBAAAEEEEAAAQQQQCDVAgRYqV4eikMAAQQQQAABBBBAAAEEEEAAAQQQIMBiDyCAAAIIIIAAAggggAACCCCAAAIIpFqAACvVy0NxCCCAAAIIIIAAAggggAACCCCAAAIEWOwBBBBAAAEEEEAAAQQQQAABBBBAAIFUCxBgpXp5KA4BBBBAAAEEEEAAAQQQQAABBBBAgACLPYAAAggggAACCCCAAAIIIIAAAgggkGoBAqxULw/FIYAAAggggAACCCCAAAIIIIAAAggQYLEHEEAAAQQQQAABBBBAAAEEEEAAAQRSLUCAlerloTgEEEAAAQQQQAABBBBAAAEEEEAAAQIs9gACCCCAAAIIIIAAAggggAACCCCAQKoFCLBSvTwUhwACCCCAAAIIIIAAAggggAACCCBAgMUeQAABBBBAAAEEEEAAAQQQQAABBBBItQABVqqXh+IQQAABBBBAAAEEEEAAAQQQQAABBAiw2AMIIIAAAggggAACCCCAAAIIIIAAAqkWIMBK9fJQHAIIIIAAAggggAACCCCAAAIIIIAAARZ7AAEEEEAAAQQQQAABBBBAAAEEEEAg1QIEWKleHopDAAEEEEAAAQQQQAABBBBAAAEEECDAYg8ggAACCCCAAAIIIIAAAggggAACCKRagAAr1ctDcQgggAACCCCAAAIIIIAAAggggAACBFjsAQQQQAABBBBAAAEEEEAAAQQQQACBVAsQYKV6eSgOAQQQQAABBBBAAAEEEEAAAQQQQIAAiz2AAAIIIIAAAggggAACCCCAAAIIIJBqAQKsVC8PxSGAAAIIIIAAAggggAACCCCAAAIIEGCxBxBAAAEEEEAAAQQQQAABBBBAAAEEUi1AgJXq5aE4BBBAAAEEEEAAAQQQQAABBBBAAAECLPYAAggggAACCCCAAAIIIIAAAggggECqBQiwUr08FIcAAggggAACCCCAAAIIIIAAAgggQIDFHkAAAQQQQAABBBBAAAEEEEAAAQQQSLUAAVaql4fiEEAAAQQQQAABBBBAAAEEEEAAAQQIsNgDCCCAAAIIIIAAAggggAACCCCAAAKpFiDASvXyUBwCCCCAAAIIIIAAAggggAACCCCAAAEWewABBBBAAAEEEEAAAQQQQAABBBBAINUCBFipXh6KQwABBBBAAAEEEEAAAQQQQAABBBAgwGIPIIAAAggggAACCCCAAAIIIIAAAgikWoAAK9XLQ3EIIIAAAggggAACCCCAAAIIIIAAAgRY7AEEEEAAAQQQQAABBBBAAAEEEEAAgVQLEGClenkoDgEEEEAAAQQQQAABBBBAAAEEEECAAIs9gAACCCCAAAIIIIAAAggggAACCCCQagECrFQvD8UhgAACCCCAAAIIIIAAAggggAACCBBgsQcQQAABBBBAAAEEEEAAAQQQQAABBFItQICV6uWhOAQQQAABBBBAAAEEEEAAAQQQQAABAiz2AAIIIIAAAggggAACCCCAAAIIIIBAqgUIsFK9PBSHAAIIIIAAAggggAACCCCAAAIIIECAxR5AAAEEEEAAAQQQQAABBBBAAAEEEEi1AAFWqpeH4hBAAAEEEEAAAQQQQAABBBBAAAEECLDYAwgggAACCCCAAAIIIIAAAggggAACqRYgwEr18lAcAggggAACCCCAAAIIIIAAAggggAABFnsAAQQQQAABBBBAAAEEEEAAAQQQQCDVAgRYqV4eikMAAQQQQAABBBBAAAEEEEAAAQQQIMBiDyCAAAIIIIAAAggggAACCCCAAAIIpFqAACvVy0NxCCCAAAIIIIAAAggggAACCCCAAAIEWOwBBBBAAAEEEEAAAQQQQAABBBBAAIFUCxBgpXp5KA4BBBBAAAEEEEAAAQQQQAABBBBAgACLPYAAAggggAACCCCAAAIIIIAAAgggkGoBAqxULw/FIYAAAggggAACCCCAAAIIIIAAAggQYLEHEEAAAQQQQAABBBBAAAEEEEAAAQRSLUCAlerloTgEEEAAAQQQQAABBBBAAAEEEEAAAQIs9gACCCCAAAIIIIAAAggggAACCCCAQKoFCLBSvTwUhwACCCCAAAIIIIAAAggggAACCCBAgMUeQAABBBBAAAEEEEAAAQQQQAABBBBItQABVqqXh+IQQAABBBBAAAEEEEAAAQQQQAABBAiw2AMIIIAAAggggAACCCCAAAIIIIAAAqkWIMBK9fJQHAIIIIAAAggggAACCCCAAAIIIIAAARZ7AAEEEEAAAQQQQAABBBBAAAEEEEAg1QIEWKleHopDAAEEEEAAAQQQQAABBBBAAAEEECDAYg8ggAACCCCAAAIIIIAAAggggAACCKRagAAr1ctDcQgggAACCCCAAAIIIIAAAggggAACBFjsAQQQQAABBBBAAAEEEEAAAQQQQACBVAsQYKV6eSgOAQQQQAABBBBAAAEEEEAAAQQQQIAAiz2AAAIIIIAAAggggAACCCCAAAIIIJBqAQKsVC8PxSGAAAIIIIAAAggggAACCCCAAAIIEGCxBxBAAAEEEEAAAQQQQAABBBBAAAEEUi1AgJXq5aE4BBBAAAEEEEAAAQQQQAABBBBAAAECLPYAAggggAACCCCAAAIIIIAAAggggECqBQiwUr08FIcAAggggAACCCCAAAIIIIAAAgggQIDFHkAAAQQQQAABBBBAAAEEEEAAAQQQSLUAAVaql4fiEEAAAQQQQAABBBBAAAEEEEAAAQQIsNgDCCCAAAIIIIAAAggggAACCCCAAAKpFiDASvXyUBwCCCCAAAIIIIAAAggggAACCCCAAAEWewABBBBAAAEEEEAAAQQQQAABBBBAINUCBFipXh6KQwABBBBAAAEEEEAAAQQQQAABBBAgwGIPIIAAAggggAACCCCAAAIIIIAAAgikWoAAK9XLQ3EIIIAAAggggAACCCCAAAIIIIAAAgRY7AEEEEAAAQQQQAABBBBAAAEEEEAAgVQLEGClenkoDgEEEEAAAQQQQAABBBBAAAEEEECAAIs9gAACCCCAAAIIIIAAAggggAACCCCQagECrFQvD8UhgAACCCCAAAIIIIAAAggggAACCBBgsQcQQAABBBBAAAEEEEAAAQQQQAABBFItQICV6uWhOAQQQAABBBBAAAEEEEAAAQQQQAABAiz2AAIIIIAAAggggAACCCCAAAIIIIBAqgUIsFK9PBSHAAIIIIAAAggggAACCCCAAAIIIECAxR5AAAEEEEAAAQQQQAABBBBAAAEEEEi1AAFWqpeH4hBAAAEEEEAAAQQQQAABBBBAAAEECLDYAwgggAACCCCAAAIIIIAAAggggAACqRYgwEr18lAcAggggAACCCCAAAIIIIAAAggggAABFnsAAQQQQAABBBBAAAEEEEAAAQQQQCDVAgRYqV4eikMAAQQQQAABBBBAAAEEEEAAAQQQIMBiDyCAAAIIIIAAAggggAACCCCAAAIIpFqAACvVy0NxCCCAAAIIIIAAAggggAACCCCAAAIEWOwBBBBAAAEEEEAAAQQQQAABBBBAAIFUCxBgpXp5KA4BBBBAAAEEEEAAAQQQQAABBBBAgACLPYAAAggggAACCCCAAAIIIIAAAgggkGoBAqxULw/FIYAAAggggAACCCCAAAIIIIAAAggQYLEHEEAAAQQQQAABBBBAAAEEEEAAAQRSLUCAlerloTgEEEAAAQQQQAABBBBAAAEEEEAAAQIs9gACCCCAAAIIIIAAAggggAACCCCAQKoFCLBSvTwUhwACCCCAAAIIIIAAAggggAACCCBAgMUeQAABBBBAAAEEEEAAAQQQQAABBBBItQABVqqXh+IQQAABBBBAAAEEEEAAAQQQQAABBAiw2AMIIIAAAggggAACCCCAAAIIIIAAAqkWIMBK9fJQHAIIIIAAAggggAACCCCAAAIIIIAAARZ7AAEEEEAAAQQQQAABBBBAAAEEEEAg1QIEWKleHopDAAEEEEAAAQQQQAABBBBAAAEEECDAYg8ggAACCCCAAAIIIIAAAggggAACCKRagAAr1ctDcQgggAACCCCAAAIIIIAAAggggAACBFjsAQQQQAABBBBAAAEEEEAAAQQQQACBVAsQYKV6eSgOAQQQQAABBBBAAAEEEEAAAQQQQIAAiz2AAAIIIIAAAggggAACCCCAAAIIIJBqAQKsVC8PxSGAAAIIIIAAAggggAACCCCAAAIIEGCxBxBAAAEEEEAAAQQQQAABBBBAAAEEUi1AgJXq5aE4BBBAAAEEEEAAAQQQQAABBBBAAAECLPYAAggggAACCCCAAAIIIIAAAggggECqBQiwUr08FIcAAggggAACCCCAAAIIIIAAAgggQIDFHkAAAQQQQAABBBBAAAEEEEAAAQQQSLUAAVaql4fiEEAAAQQQQAABBBBAAAEEEEAAAQQIsNgDCCCAAAIIIIAAAggggAACCCCAAAKpFiDASvXyUBwCCCCAAAIIIIAAAggggAACCCCAAAEWewABBBBAAAEEEEAAAQQQQAABBBBAINUCBFipXh6KQwABBBBAAAEEEEAAAQQQQAABBBAgwGIPIIAAAggggAACCCCAAAIIIIAAAgikWoAAK9XLQ3EIIIAAAggggAACCCCAAAIIIIAAAgRY7AEEEEAAAQQQQAABBBBAAAEEEEAAgVQLEGClenkoDgEEEEAAAQQQQAABBBBAAAEEEECAAIs9gAACCCCAAAIIIIAAAggggAACCCCQagECrFQvD8UhgAACCCCAAAIIIIAAAggggAACCBBgsQcQQAABBBBAAAEEEEAAAQQQQAABBFItQICV6uWhOAQQQAABBBBAAAEEEEAAAQQQQAABAiz2AAIIIIAAAggggAACCCCAAAIIIIBAqgUIsFK9PBSHAAIIIIAAAggggAACCCCAAAIIIECAxR5AAAEEEEAAAQQQQAABBBBAAAEEEEi1AAFWqpeH4hBAAAEEEEAAAQQQQAABBBBAAAEECLDYAwgggAACCCCAAAIIIIAAAggggAACqRYgwEr18lAcAggggAACCCCAAAIIIIAAAggggAABFnsAAQQQQAABBBBAAAEEEEAAAQQQQCDVAgRYqV4eikMAAQQQQAABBBBAAAEEEEAAAQQQIMBiDyCAAAIIIIAAAggggAACCCCAAAIIpFqAACvVy0NxCCCAAAIIIIAAAggggAACCCCAAAIEWOwBBBBAAAEEEEAAAQQQQAABBBBAAIFUCxBgpXp5KA4BBBBAAAEEEEAAAQQQQAABBBBAgACLPYAAAggggAACCCCAAAIIIIAAAgggkGoBAqxULw/FIYAAAggggAACCCCAAAIIIIAAAggQYLEHEEAAAQQQQAABBBBAAAEEEEAAAQRSLUCAlerloTgEEEAAAQQQQAABBBBAAAEEEEAAAQIs9gACCCCAAAIIIIAAAggggAACCCCAQKoFCLBSvTwUhwACCCCAAAIIIIAAAggggAACCCBAgMUeQAABBBBAAAEEEEAAAQQQQAABBBBItQABVqqXh+IQQAABBBBAAAEEEEAAAQQQQAABBAiw2AMIIIAAAggggAACCCCAAAIIIIAAAqkWIMBK9fJQHAIIIIAAAggggAACCCCAAAIIIIAAARZ7AAEEEEAAAQQQQAABBBBAAAEEEEAg1QIEWKleHopDAAEEEEAAAQQQQAABBBBAAAEEECDAYg8ggAACCCCAAAIIIIAAAggggAACCKRagAAr1ctDcQgggAACCCCAAAIIIIAAAggggAACBFjsAQQQQAABBBBAAAEEEEAAgUEJNLRumNQ478Dtg7qJxggggMAwBAiwhoHHrQgggAACCCCAAAIIIIDAaBNocM/sfHDDDPNgakkmzOcsm/vjHINQW125Xstk7wxzvrhE+V5lg13b+/Jbe7vae8or5h7Zl8mOz5WWrynJbyr1fHBkdK9nffP2px58puWMM57va7S5MR8EECisAAFWYX3pHQEEEEAAAQQQQAABBBAoqkBd66bTpk3Ydv+WfOVk35br9Wx4gGXDo8NsdktUmOXCA19YoJsmm+uTko57SeFmv3HpMXO/QPJtMntKbg+76dYg74954J+RbE4ovS8jHerSp/b08UuTvqPQNyuwjDLBhiCXe0YZOzzMabJKs+uaZk99pKhQDI4AAqkWIMBK9fJQHAIIIIAAAggggAACCCCwR8DdZOZLly4Non+ydOnS8IU2S57yCda96azl86Yvr1vdOTfIa34YKpD84x4E3zXXDCncZhYc7vJzJFvXf7/7ifvJeLfLZbIyk/1e0t0uXyTTkRb6jWHgl580p/Le+zo2vTLwvk3HVx/yxFKzF81xP9XJMAggkEIBAqwULgolIYAAAggggAACCCCAwNgWqG3tfmWZtj/WOO+IrkiivnXDiQoy9fkw35a1bFvo+TdYEExy9/uDwLJ519xAmuzS+Sb9e+g6NQh0tnsUYI2IK0q2bnWpxUItkvSUS6uXz624bERUT5EIIFBwAQKsghMzAAIIIIAAAggggAACCCCwd4HahzaesfwV02+KQisPclUrqqf/tLa98ytyHWGu3+Ut35xR5vsynS5prUyPyjVf0kSTVruUlTRrlBp/zVxBPuP/tWJO5e9eNMc9T6SN0nkzLQQQ+DMBAiy2BAIIIIAAAggggAACCCBQJIG6ts4bMgo+kPdwomX0KQ81X6Z7JJ0kRa/8qUuuNTKdWqQSiz1sb3RMl5u1BfIV+bx9LygJjlUYnqY+/1EmEwS7SsL8ytkVTxa7UMZHAIHCChBgFdaX3hFAAAEEEEAAAQQQQACBFwnUdmw8oydUxzgLrpH0OkkPSZok08FyjZcUmpncfaS8/refVti3S8F6ySOjA+S+QRYd8RVKZo9MW7+1/pozZu3eT8UwDAII7GcBAqz9DM5wCCCAAAIIIIAAAgggMPYEotcDzcKrZIoOTI9e+YsOJ58gpfKMqmc/HuhPScHDkp+xj9XKS94rWRQoFfmynORNzdUVDUUuhOERQKBAAgRYBYKlWwQQQAABBBBAAAEEEBh7Ag1PPDF+++7Dw5XHqLd2lSaZd20105bQ/RGTRa8F7o8rCqCiYKnnj4O5dLGF1uHm40x+UqYk+4ueXVp7w/FTu+tXddfn3e5fMWdK/1cJ6zu61oZh/v1lrdN/Ma9BttQsd17bxpNCy3zP5ce4+03uwd8HgT8oV0ZmJTL7qOQL5R4FSNui1/4kTd4fk33hGC7d72H+knGTp7fMO1w9fMVwf68A4yFQOAECrMLZ0jMCCCCAAAIIIIAAAgiMIYHaR7cfFPTs/r7Lns4E/r2cB6XmfmuhCEzW1/+1PvcdMvnz45h2uOv7y6srvjeUsRev7pxcFgZ1TXOm/Xig+899cFO1l9hb3HO/cistCxR+SbKvlzww7ae9x3U+JQuid/yyck0dqK9E/9x1o0JdWbp15y2NC4/YlWjfdIYAAkURIMAqCjuDIoAAAggggAACCCCAwGgQWHL3UxOyE8tOCKXJJv2tpL/0Qr4W6MrJtN5M69z98UxeV2XaKu5tPN/yafCsb9/85vyUKStXHKJdtW2b3mbZYLzC/vAqOuvr0D0H00/a84RW4Ut2v6jUn/le47x50WHwXAggMIIFCLBG8OJROgIIIIAAAggggAACCBRH4B1rfdxmbR4X7s6/1mRX7glmtskUPW1UgDOh/Ccmvc6ln8kzd/d5343/O+/A9cWZ/eBHrXHPTl7VfZrczzLZITLPWKjATe8afG+Du+PZVzj/samq4qrB3UVrBBBImwABVtpWhHoQQAABBBBAAAEEEEAg1QIN7pnetu7LFYQHuLTg+bOtXJtlKpE0MeEJrCsNy4/rta6/ap5b8f2E+y5ad0vdg/s6uj4ZPY0Vuo83WY1MpxaioC3ry0tazogOeudCAIGRKkCANVJXjroRQAABBBBAAAEEEECgKALntm88x5W5zuVRWFXI6wa5r3T5uuVzp99QyIGK3ffi1V5Wluu6xKXLCvF6obl+4Aqub547tUmyP50XVuyJMz4CCMQWIMCKTUVDBBBAAAEEEEAAAQQQGIsC57Z3nRPKL4q+rueKvuJnx0qaXYig5QW+XwkUfi9bVflIo6XjfKtCr31de+dCSV+VNL8AY7nJ1rrCh2TW1FxV8R8FGIMuEUCggAIEWAXEpWsEEEAAAQQQQAABBBAY4QLuVtfe/QGZf1NSdFB6kHBwdbukhWa2xd1/K/kMyeYoDC9onjf9JyNcb1DlN7S2luYyB73aFVzp7icM6ub4jUN33R66f+T6eZV3xb+NlgggUGwBAqxirwDjI4AAAggggAACCCCAQCoFGlq9tDe7+a8U5r8r2bjEi3R/JJP3D+eyVinz68omVub6dnS9zd3PCHL63LLjKtsTHzPlHUbnYt3+wDPjx5eU3CrTiQUpN3qizf1rpd07L2tceMSugoxBpwggkLgAAVbipHSIAAIIIIAAAggggAACI1Wg4eee2f7KromlOS2V9I8FmYcrp0A7M2Fw/HVzpz1WkDFGSad1bZ19/V92LMBlZh9oqir/dgG6pksEECiAAAFWAVDpEgEEEEAAAQQQQAABBEaeQPT0z71tm86xIPhvqf9rgslfpl3ufn2gzMeaqqetS36A0dVjXXvn3Saf7LLozLFkr1CfKVX+isZ5B25PtmN6QwCBQggQYBVClT4RQAABBBBAAAEEEEBgxAmc275xUajgp5IOSbj4rZLuiPo0+ep8oG+tmFPZkfAYo7a789o2HpK34H/kOkGmCYlN1PW4B8E7ls+Z2iLjy4SJudIRAgUSIMAqECzdIoAAAggggAACCCCAwMgQqFvTeYT3aL4F+qykOclX7fc0V1eekny/Y6fH+lWbTvVQKyQ7MMlZmwX/bj09ly474eANSfZLXwggkLwAAVbypvSIAAIIIIAAAggggAACI0TgnIeeOSGTyX5Y0hJJlQmW7dF8RyY0AAAgAElEQVQDVy7dEEjLm6orrk6w7zHXVW3rhmMsyHxD0uskZZIEcOmr5ePKP3HNLNudZL/0hQACyQoQYCXrSW8IIIAAAggggAACCCAwQgTOa+uekTf/jNzfKkvwzCv3H8uC2+Sez2X9thuOHXtfE0x6C9TcdFO24vDj5/Tl9FGTzpc0PsExdoVByZEr5kzelGCfdIUAAgkLEGAlDEp3CCCAAAIIIIAAAgggMDIEats6X2em6MD2yYlU7OqT2RWZrH/7+GPKn1pqFibSL508L1D3YOcRntVVJp2XJIuFurppXsX7kuyTvhBAIFkBAqxkPekNAQQQQAABBBBAAAEERoBAQ2traW/m4Avk+kFS5Zp0ZckO+0zjKeVbkuqTfl4qEB3q3ud+YhBkviVpViJGpl3NVRXJHRCfSFF0ggACLxQgwGI/IIAAAggggAACCCCAwJgTqO3oOl4e/tZk45KYvJn9p8rsQ02zpm1Ooj/62LfAUvfg3vaupWb+USW1hrncMU3HHfQI9gggkE4BAqx0rgtVIYAAAggggAACCCCAQIEEzm3fWhF639PDPvfKlJcrL9l/N1eXX1Cgcul2HwJ1bZvWy+yghJB2NleVT5JFZ+9zIYBA2gQIsNK2ItSDAAIIIIAAAggggAACBRU4t2PLG0LPrRzWIKZ2U/CQ8mFr07yKTw+rL24eskBde2ejpLcMuYMX3mjabZZd1DRnyl2J9EcnCCCQqAABVqKcdIYAAggggAACCCCAAAJpFqhfvfloz+XXDKtG9zW7+nIn3njCwTuG1Q83JyJQ19bZ5uazEnkd1H3NlvHbjmuZNWt3IsXRCQIIJCZAgJUYJR0hgAACCCCAAAIIIIBA2gXqWjd+WkFw2ZDrdOXMwrefeG3ltUuX8pXBITsmeGNtx8YzFFqDmb1d0sThdW2bPNQ/LJ9X/l/D64e7EUAgaQECrKRF6Q8BBBBAAAEEEEAAAQRSK1Df3v0VV/iRIRb4Bzc15nszn7nh+KndQ+yD2wog0PBI15Te3vCzkn1o+N37TaVVFa9rNMsPvy96QACBpAQIsJKSpB8EEEAAAQQQQAABBBBIvUB9e9d9Lj9haIX6F3N9O758w/EzCK+GBljQu85r23hIzuzNJlsi6fVDHszspoPmTDv7arO+IffBjQggkLgAAVbipHSIAAIIIIAAAggggAACaRRo+PnPM73HnblV0oSY9e000w1yXevSdrfwweVV05+KeS/NiiBQc9NN2WmHHTc7zNlXZHrjkEpwfyQw/4dl1dOvH9L93IQAAgURIMAqCCudIoAAAggggAACCCCAQJoE6tq7viD3GplOlRTEq81XeRieU9Y6fW3j+bxOFs8sBa3cra6981KZfUzS5CFUlJP795vnVv7dEO7lFgQQKJAAAVaBYOkWAQQQQAABBBBAAAEE0iNQ19b5C5nOlBT7dyCTVpvbecvmlj+UnplQSRyBhlYv3a2u2UGg6yQdG+eeF7UxdcjDjzVXT18x6Hu5AQEECiIQ+4d3QUanUwQQQAABBBBAAAEEEECgwAINrV1H9gX+YZculDQpznAm65OHP2maW/mOOO1pk06BNz+86bRcXsskO2TQFZp9acvT0z7RcoblBn0vNyCAQOICBFiJk9IhAggggAACCCCAAAIIpEmg7sHOI1y5aZbNLpc0I1ZtZr9prio/PVZbGqVaoKFj86xe5VvlGj/IQr++a1rfpTcefPCOQd5HcwQQKIAAAVYBUOkSAQQQQAABBBBAAAEE0iNQ1955tczeJfdMzKp6n9xRPumeU/gKXUyv1Der69j0LblFZ1rF/R14h5n9KMj456+bXfFk6idIgQiMAYG4/+MdAxRMEQEEEEAAAQQQQAABBEabwJLWznlBYN+UvCbu3Nz0r8urKv4hbnvapV/g5LvvLjl84qwfSfqrmNWul7TRzL7cVFX+nzHvoRkCCBRQgACrgLh0jQACCCCAAAIIIIAAAkUUWLo0qDv/oktk9nEzTXCP8fVBV27L+K0HtMyatbuIlTN0AQRqWzccEwTZNpeXxO8+fH9z9fTvxm9PSwQQKJQAAVahZOkXAQQQQAABBBBAAAEEiivgbnUd3ZdL/s9Sf3g14O8/5tZ04M5p51/N64PFXbsCjL54defk0rxfKrdoP8S8CLBiQtEMgYILDPgDvOAVMAACCCCAAAIIIIAAAgggUACBmps8O+WQzssHE1gECmuWVVXeIjMvQEl0WWSBhtYt5b1B/qOSXywpO2A5rjbL+Dub5lTeNWBbGiCAQEEFCLAKykvnCCCAAAIIIIAAAgggUCyB+vbO17v0dUlzYtVguja0kotWzJm8KVZ7Go1Igfq2TX/jZj+M80ReNEH38Jzlc6ffMCInS9EIjCIBAqxRtJhMBQEEEEAAAQQQQAABBP4ksKR944WBgu/EDSqCTOb1y2ZP+eVYfvqqvr17qXt4fvPcirkNG3xSz8bu+iD0DU3HVdw4WvZWXdumt+u5ACvelQ9rm19Reb3EU3nxwGiFQGEECLAK40qvCCCAAAIIIIAAAgggUEwBd6td1f0+c/923DLcwtcur5p+U9z2o6VdQ2tr6by5c3P3dXR926ULJe026UGX/iKao7nuCpX/aF9J5r4/znnlMeXbRmrQV7+q+288DGM/gSUCrNGy1ZnHCBcgwBrhC0j5CCCAAAIIIIAAAggg8FKB2ke3HxT09n7K3f/uRX/q/ojMjn4Zs1yg4Kxl1dNuHmuetR1d0ZlQD1ro18jsoIHmb2Zh3jLzDzl28n0Pt7R4yxln5Aa6J01/fm5Hd13o4fclVcapy8w+sLlsy3/wZco4WrRBoHACBFiFs6VnBBBAAAEEEEAAAQQQKJJAbdvGN5kF1790+PD9eu61wj+/QlN4ZlP19JYilVy0Yes7On/uroZBFWC2SWH4kdD1ZO6x7ttWvnF2z6DuL2Lj+vbumW7hF+X6y7hlWOinNc2t+N1Ifeos7jxph0CaBQiw0rw61IYAAggggAACCCCAAAJDEljSvvGcQMGK2Deb5c3zZ421AKvu4U2nKW/flHRKbKsXN4xeNbwm73bjDXPLHxpiH/v9ttr2TZcEFlzu7sGAg5vlFfqVW8ZvvYynsAbUogECBRMgwCoYLR0jgAACCCCAAAIIIIBAsQTOe7jrTfm8L5c0cEDxXJH/nfHg4uvmTnusWDUXY9y69s6zTVrg0rslHT6MGv5P7teXevg/jfMOXB895dRUPW3dMPor6K21HV2vstCvlOnUGAPlJe/NTcgedsOMqd0x2tMEAQQKIECAVQBUukQAAQQQQAABBBBAAIHiCtSv6lrsUYBlysaqxPX90vFln2ycNWl9rPajqFH977un+rj8LyU7eVjTcm2W6SZ3dZnZwS7vUFnZFcuPmvTMsPot0M11Hd3vlIeflXRYnCFKw2xF47wpXXHa0gYBBJIXIMBK3pQeEUAAAQQQQAABBBBAoMgCdau63qjQozOwYv3OY6Z/zVvJ5SvmTN5U5NL3+/CLV3vZuFzXSaEUPbEW62DzeEV6j7n9Tqa7XHZNaZhb2zjvwO1L7n5qwoqTD9lV7POkGlqfKO+18T+X2Zlx5kOAFUeJNggUTiDWD/PCDU/PCCCAAAIIIIAAAggggEDyAg2tW8p7g9wlki6O07u53nNidfl/LDUL47QfbW3q2rveJw8vkdmMAsxtp6QNknZLyssUyBU2V5UfV+wQq75t0wo3OyfOnAmw4ijRBoHCCRBgFc6WnhFAAAEEEEAAAQQQQKBIAtHZTjI1yTUuVgnuf9s8t/JHsdqOwkaLV68uK82VrxnmOViDldkihT/I5DP/c90rym8b7M1JtK9v71rh8gEDrCDQhdO3rb3m6lNO6UtiXPpAAIHBCxBgDd6MOxBAAAEEEEAAAQQQQCDlArVtXW8y63+FMNbl0oVlVeU/aIy+ODdGr7eu2lq5M+x7VNIBRSD4bRjaxeP09F2N8+b17q/x69u7fuJSg+T7PCvNs8FJy2dP+/3+qotxEEDgpQIEWOwKBBBAAAEEEEAAAQQQGF0C7lbX0X2O1P8VwrhXd6Dg3GVVU28p9mttcQsuRLvFqzsnl+W0yaUnJc0qxBh77dOUt9C/kHf72bhx9mTjUdO2FnotFq9+enppruy/JX/1Pr9YGdjngzB75bLqyZ371YTBEEDgeQECLDYDAggggAACCCCAAAIIjC4Bd6tdtXmJedg8qIm5f6m3xD6/cnbF1kHdN5oaR+Ffe+cvPBN8Pwj1LZeXF2N65v5lV3Bzc/W0lYUOseraut6oQD+U+wAH2PslzdWVXyyGB2MigEDML3IAhQACCCCAAAIIIIAAAgiMJIHato1vMgv+/BXC6PXAzN7mYaYtQZA56bpjp0av0Y3Z67yHu08Pw/x7XcFkudcWEyKwoD77wNTrG88v7KuddW2b1sjs6H3O1XVF89yKjxXTg7ERGMsCPIE1llefuSOAAAIIIIAAAgggMEoF9hJg5STt46wjuy3jZQ3XzZ349ChliTWt19+/fuK4bOb9CuxtJjsp1k0Fa2TrDtox7dgnpqyfOi4sm+Ol9lBPbuqulbOtJ6kh69u7Z7qHv5dp6r76zGQyR4/1cDMpc/pBYCgCBFhDUeMeBBBAAAEEEEAAAQQQSLVAXeum0yxj/+Gu6tiFutqU1xuaj6t4IvY9o7Fh9Apm+8bXmGVWyl0ym1DEaYaSrsxkMt/O5/vmScEpks/0bOaqpA5Vr2/v/pAr/JKk8fuaZ2kw/vDGORP+UEQLhkZgTAsQYI3p5WfyCCCAAAIIIIAAAgiMToFzHnrmhCj0kGzBn2boqySbvdfDul0592z18nlT1oxOlfizqv/92qn58dNOCsJctQL7oAYTBMYfJm7L3Sb7bei+MwiC7WGY2xy4tuWyduX1cyqHHSjVtne+16SrJO0zqDPpF03VFa+PWzTtEEAgWQECrGQ96Q0BBBBAAAEEEEAAAQRSINCwdsPBvbszSyW977lyrNdkZ7uF/yvf65M2nvf8nOvnHrg6BVNIRQlL2rsXBQq/KrOT5F7k3x8tJ9N2ue8294+VeMW1jfOsd7hQDXd3TembqEdjHFj/tebqin8a7njcjwACQxMo8g+goRXNXQgggAACCCCAAAIIIIDAvgTqHug6Tln/lkyv+WO7QOGcvGdmm/mfH+7+gq58TW+2+xUrZ89O7IylkbxS56zadFg2tK+51DDIebjMVsh9SZQeDvLeGM39izYu86WmWdM2x2g8YJP6jq4n3P3wfTf0nqCk7MhlxxywYcAOaYAAAokLFOAHSeI10iECCCCAAAIIIIAAAgggMGiBuvaN75OC77wwwFpWPf3huvZO32tnpoZX/qz8uqVLLTp7iUtSfVvnh930BkmnSZoWC8X9V81zK8+K2tY+uPEUy9oVki10+YWS/j6Jw+HzHp58/dzp98aqZ4BGde2dayXNHKiv3qymrJxdsXWgdvw5AggkL0CAlbwpPSKAAAIIIIAAAggggEAKBP48wHILq5bPqXy4rqNrr+FUIFuyrGraDTLbe8iVgrnt7xLqWzec6EHmPyXNizW2+a7mqsoXnSlV177p45K9T67DZCqJ1c/eG3new1MSDLBuk7QwRk07mqsrJsVoRxMEEEhYgAArYVC6QwABBBBAAAEEEEAAgeILXHi3lzwzoesima78YzUmvS80azX3W/dR4Y4w9NpxeubWXHDwycuqK+4o/myKX0H/Vx2D4K9d4bsl2+fX+vqrNcvnd4czrj/xxYes167ufqXl/B8kf5OkimHMbFPgdsayueUPDaOP52+tb+v8rJs+MWBfpl35MHx1tif7aNMrk3l9ccAxaYAAAs/9WMEBAQQQQAABBBBAAAEEEBhtAn+z3idu7e76yLO/83z6BXNzd19j1v8lwr1f7s8EVnp66H2/MNN7m6orbhxtPkOZT21b15vM/McxXyN0yb/ZXF359y83Vt2q7n+0fPgKN/2tpC2SygdTk8lXh1a6ZHnV5FWDuW9vbes6Nv2L3C4fqC8zC939IZd/b3l15TcHas+fI4BAcgIEWMlZ0hMCCCCAAAIIIIAAAgikSKC+ffPJrvBKyU8ffFn2I8nfLtlNXlb61uVHTXpm8H2Mrjvq2rtulTx6zS7u75HrmqsrZu1NYal7cG9756UmTZLZPw9Gy6TG0MJ/WF41/anB3Le3tg3umd6Ortwg+vplc3XF6wbRnqYIIDBMgbg/eIY5DLcjgAACCCCAAAIIIIAAAvtXoOH2J8b3lU+40N0vlezAGKPnJQUvDmjsptIw97ZeZWdnslYZ7tRNY+XVsdqOZ45XGLwzE9iK0C06syo6EH/Ag85f4LzPAKu/nbvVrtpcYx7+Osb67GniPwkt+4kVc6asS/Kssn0e7v/S4giw4i8YLRFIRIAAKxFGOkEAAQQQQAABBBBAAIG0CdTc5Nnyw7Ycmcvlv2mmxS9bn1mP5E1yzZBrnUxn/9krcpvkuk+mQ8xsvOczb1OQe/9BO8ov3JDZPNHH+eXN1eUXRUFMkmHK/raMwr7GBYfvjuawpL3zwkA61+QVruAEmT8i94zJZrniH77u8o3K+18uf8X0m/Y2nze2bji4xDLNMp26zzm7HrIguNaVP8S874qm6kPWJW1EgJW0KP0hkKwAAVaynvSGAAIIIIAAAggggAACKRGIDnLvPujJbO+Oid+V+9+8XFnRmUYKfakyfrvn7RJ3v8aC4N8lL335adg6yQ+VtEZSxqXdyuXOtiD7Rs8EncGuzbeUlM7c2TjPev94v7ubpeSrhnXtnWeX7rA7cxP8VHcdb2a7Q+U2mWUudOmgPTUfvOeA9ehLjEP/ndGUl+tpmf20uar8Y3/uee796w/Ml2RvtSA4pj8A3Pu1K3r6yy38VFm+tKRx3pTu6NmtJLdZ/druqb47jPqNe/EEVlwp2iGQkMDQfxglVADdIIAAAggggAACCCCAAAKFFKhv77zG1X9YeLjnFcHnhjP9n0LdKNPnPQzfY0Hm3YGy7w/Vd7+kcbFqMssrDHcpsKzcr4teVTT3H4VmR0dPLEnhKrk+JMtc3Vw97VO1HRvPyCiozCt8YPdjTz1549kn7IjCkxNnTt16b/uWMwPlPuhZfbP52Mpf1rVvvFiW7W2eM/UbcZ7uWtK64dWZ0tKnm2ZPfSSqva61c65K/ADL+3hX8IPnQikvkSwneVayjGTuCj0wK3Xvf32yENfPmqvK3/bnc6hr79wq6YABBswFsnN3Z6f9YuXs6Gm5wlx1bZu+LbP3x+7d/ZfNcys5Ays2GA0RGL4AAdbwDekBAQQQQAABBBBAAAEEUiywZNVTlfIJBwQeTnILP2tudVGIY+bXlXTtfEff1AkXu+kjZjpAQXByfndmd1DS157QlKLQbIvkE6T+p7JeGNjEfsIpDLw6E+pboYLfmvySPbVtNWn8C1/rM1mf5DtdmpJQ/cPvxmytzC9pnlNxbdTZ6+9fPzEzoSRTmtPmAZ7w2tZcXTF5+AUM0IO71bV3Ra+PHhlzrFXN1RVVMdvSDAEEEhIgwEoIkm4QQAABBBBAoPACDQ3KPProycGSe+7JL33uSQouBBBAYFAC0WuFz0zsip7kud3GBec0zZq2ua69+9Py8Nz+jkwzvaxstvX0rB9Ux0NobKYN7opzuHxU126Ful+m04YwVBpu+W7vFn2sZGrogWdaXH7SPopymT1amilZ0Dj7gI2FLv7c9o3Hhpb5rdynxhjLzYK7m+ZMPS3OU3Ex+qMJAgjEFCDAiglFMwQQQAABBBAojsDpp8+YlemzY12y0H1CEPgEU7BNrt0eaovGz7y7paVlMJ8+L85EGBUBBFIh0PBI15TeXn9ApsmSfS9U+H8ZD97jCs9zt2aTXm+BfuiuD8coOCf36Et4x8RoO3qauHIyZQc5oWcUht+1IIh+nH/A5dNf/n7LycN73cMLls87MDpnrOBXbVvnVWb2d3s/9+xPJfQ/4Wb+pZJ89muN86Z0Fbw4BkAAgecFCLDYDAgggAACCCCQSoFTTz2sYny29I1yr5d03l6KXGuyK5Wx+1puffTWVE6EohBAIHUCta0bLzCzt8jsTXLvk9mE/qdp9n2Q+EvnYdol+f+TW/RzajRf0WHs95ip3U2R1y6F/qHkJ+wbTHazuX1m2dzyh5Lv/+V7rOvobJQregIvE2PMncqpKue5khuOP+jRGO1pggACCQkQYCUESTcIIIAAAgggkJzAaxbMOjWQ/5Wkv4t5kPI9Jn2v5Y51302uCnpKq8DpC2a8O5C97MHPbtaZzfX+76/u+kNnWuunrnQI1HZsPDRQcJW7GtJRUdqq8B6XdZh0l8we81xfS5kd+Lv+ryu6W31H12UyHeGudydSufsjbvZvltvd2HzcYU8k0mfMTuo6On8r6S/ksb64uKO0qnxKY3R4PxcCCOxXAQKs/crNYAgggAACCCAwkMBr5884KTS7zKWzY4ZXf+xyo7kua7lz3XcGGoM/H7kCNTU1We9Z96Dkh7/8LKzdpLe33LGuY+TOksr3i4C7ndvedZYH9l/ue3udbb9UUsxB1kt2o8nudg93vbgQ7w3MH9udzbWtnH3Iy55DVfvgMwcpm/2MSRcObxL2uILwk6W58LrGeQduH15fg7+7rqPr93I/MeadO5qrKybFbEszBBBIUIAAK0FMukIAgbEnUDN/5t/K/BWjZeaBBb/49e1rbxzsfGpqZo5Tj392sPelv72t4Yme/btKi485pmxnZe4zMl0kacIgR4++5nWvy997yx2P/X6Q99J8hAi8dsGxh+XVe5ekQ/dScmsYhuf/5rePt42QKVFmEQXq13ZPVU/+Enf7WBHL2F9Db1H/lwntAXl4tczWBIHtsMDXdR1Tvr7FbEhnCS5p714UKP9dyeYMbSLWqcA/GG7rWbHilEN3Dq2Pod9V2975T+b6hEzTYvZCgBUTimYIJC1AgJW0KP0hgMCYEqhZOPNncp0zaiZt/oWW2x/73GDns/i0YybvCnJPDfa+tLd36Tc337FucdrrHE31LZo/673R4bhS7F8kXjR9l3rN9Z2b71wX5/Dl0UQ3ZuZS86qZ8z3Uckl7OQBaBFhjZjckM9GzW58oLw3GHRfIlkpWk0yvqevlMTe7wPO+ORMEO6aOm7r+mlm2O4kq37xqU1U+DK5w+VD+fSjveVvUVzbt7pWzLfoy5H6/ats2NZlZbf/3J+NdBFjxnGiFQOICcf9HmvjAdIgAAgiMBoFFC2YukzRqDm4106dbbl+3dLBrc9bJR03pKw03D/a+EdC+5eY71p0xAuocFSU2NCiz4clZl0r+meFMyKWbM0H4wZtue7x1OP1wbzoFahbMeLfLvvrckyQvexFgpXPp0l2Vuy255+nxmUnjLnKpZM/HI6oU+jcV2MfTXfzLVrfOpc/37ept0gGlPZN682Hj3Ok7+g+qT/ha6h7cv2bzazyXv8JlfzGY7nuzmrLymPJthagrbh317V0rBhm+EWDFxaUdAgkLEGAlDEp3CCAwtgQIsJ5bbwKssbXvCzXb1y6cdXoo/zd3zRvmGHlzfbblznWfHmY/3J5CgUULZ/xYbn+pKGQgwErhCo2ekt702OZp2V352+Wa/eKv03mPZL2SojAoI7Nxcg8kRf/cJC8rkEI0Xt+erybmJb/XzZos9NbekorfFOsJpmiutR0bDwjC4Co3vSvW3F235HLb6284fkZ3rPYFaFTb0X2GhfmvyuyVg+yeAGuQYDRHICkBAqykJOkHAQTGpAABFgHWmNz4BZr06fOPusAs/PEgXuPYayXmdnnLnWs/WaBS6baIAjULZt3q8lftowSewCri+oy2oWs7dhwa+O7Pu3TKnqBqoqRvu4VfW141fVttx8ZTzIOPm+sgC+w7YegHyqKv8lmZPJQFNt1d0Rczo4ArurZLvl4KSl2es+cCrwP3nPm3VbI+mWflir5wt01SdCbUnqemfLdbcK1buGLFnMrUfaSgvqMz+qLjwK9vm54IQnvjsrnlDxVzv9S1bfoXmV0+hBp2NFeVH1DMp8aGUDO3IDAqBAiwRsUyMgkEECiWAAEWAVax9t5oHLdm4ay/dvcowBr2RYA1bMLUdkCAldqlGfWFnffw5qM87yfmLT9B8uYowHrJpJd6oE/Jz2vffGQ+vzO07Pi/dg9Pldn4/rZud6vUvxt4yeHK9XTmwqAkCPQOl1eZB7dK3ikLp0qZbUG+787puw9su/oU6xsJuPECLO/IWPCe66rKbyvmnM5r23hIGASXu8d8YuzFxe44aEf5tJGyLsV0ZmwEkhYgwEpalP4QQGBMCRBgEWCNqQ1f4MmevmDG20wWBVh/fFJhyCMSYA2ZLvU3EmClfokocIwKDBBguUsPBKF/pGle5a+KSXTumm0Hhn09n5Db38mUHUItvEI4BDRuQSAJAQKsJBTpAwEExqwAARYB1pjd/AWY+OmvmvFGC+17kg4dbvcEWMMVTOf9CxYcPr7Usr+Wa/4+KuQVwnQuH1WNYoHFqzsnl+Z0laR3/tk0tz77M/3q6HVIC/22YoZX9W2dn5QpE5oOt9DfKrMJQ1wSAqwhwnEbAsMVIMAariD3I4DAmBYgwCLAGtP/A0h48q971RGH9nnmc+56xzC7XutuH7/lzrU/H2Y/3J4ygZoFM6tcitb1OAKslC0O5Yxpgdffv37i+LKSq+R6z4sgXI+XHrCzqvGII3YVCyh6XTBvdolkH0ziCV9JBFjFWkzGHfMCBFhjfgsAgAACwxE4fcGMV2Zk0eGrL7ny7hMD0yFuQfQ0ybGSnyTXUcMZb5D3htEXikzB/S5/3KRnJD1j0l7/JdKVeaTljkfWDHIc1dTUZK1n3ZkD3mee9dCOCE0nmPwsyY4Z8J4CNDDpkWc/nnirmT/gof3BTJtfbpjQgq6bb3/0dwUogS5fXsBOnz/jUhvaobrP9+hu/xPs9ve03LBXWjwAACAASURBVLfuZdcV/JErsGj+zOiVn6WSXvbn7p6Z8QTWyF1iKh+hAm96cFN1NmtXSnrDC6YQugdnLJ877ZZiTOvcVV2vDvN6lQI/Q9IiucYlUofroea5FfsK0RMZhk4QQOClAgRY7AoEEECgQAINDco8+eThpVPDcSW9yo/3TG6Sm43LhZmJgfm75bow8aFN3W7BhwK3+zOZvtDzmR1hac+Ovr4DekpKevpqWtb1LpXCxMeN36HV1Mwsy+zsm+jZYGrkEYbBv0l6TRJfnttHGbtl+g/JfxyYbzX33X2Zsq1Td+7cse2Ap3pbWpSLPwVaFlLgzNccOTeXD6K/xX/dEMd5xlxLW+5c950h3s9tKRZYtGDmDyVdICmzjzIJsFK8hqO1tCWtXUcGgVfn+jJ33XD81O7ROs+9zavhCR/fu637DJm+IPnxMvuE9eb/r+n46fcUy6Kuo+vLcr9QZpPkHsgUyvf5syNWqaFljlpRNXVtrMY0QgCBRAUIsBLlpDMEEEAgloAtXnxM6a7u3FvdFIU3z32ZaLiX+TdKgsxXph3y6B8aG/s/vz0irpNPPnTCpLLS38ujp9SSvfqftDJ9os/Kbpg8Od+7cuWa3j99jjzZsegtMQGrWTjzU+72EcknDbJXN/mvt/VWLr7nnntGxFe7Bjm/Md+8ZuHMn7nrLweAIMAa8ztl/wMsdQ9W3HNP5rBJM44yZc821/Km6mnr9n8lxRux4eee6Tuu6+fPHtZ+nnI6svm48ielZ/9KoQhXbUf3GYGHs2V6t7tOTbKE5uoKfodOEpS+EBiEAP/jGwQWTRFAAIGkBWoWzviIu31BUskw+25x+T/dcsdjvx9mP0W5fdGCGXdLdlIyT2FZTvJNZvrHltvX/awoE2LQYQssWjjjarn99SAC3ujJwvtuvmPdycMenA5SKVBTo6z3zPipZG8hwErlEo3Notytrq2rWqavy3Sm5Nuk6Mt2Nj6TyR193bEHPTo2YfbfrBtaN0zqyVhVoOCL7qo2t9/J9BqXlyddRSj/+orqyg8n3S/9IYBAPAECrHhOtEIAAQQKIlBz8qGVXlL6DZn+ahgDuOSX33zHY5cNo4+i3rpowcwHBjiUOW590RNXN958+7oPxL2BdukVqFk4c6m7v1myuQMcvPu45A/ffMdjQ33tML0IVPa8QM1pM+d7YN+Q/BQCLDZGWgQWr356emmutN2lLaY/nXNpst4wn3/D8nmVLbLiPIWUFqNC1vGmB545qqSk5Ncun1HIcSQ9LffN1pNZ2PTKaZyvWGBsukdgbwIEWOwNBBBAoMgCi+bP+pbMhxO4POPyf7nljsf+vchTGdLwNQtnnuiuZklHDqmD526KDqhfZa6/bblz3Zh6ZWMYZiPi1pqa6ZO8Z+KPZZpornKXKiTLSr5d0nqTevKyy35zx9q7RsSEKHLIAqfPn7nUTB+XVEaANWRGbkxYoKF1+8G9Qc/jcvW6+U6TTd8zROjSBll48vKq6U8lPCzdSdpz7tj1Cf0F2F5MrVfyPlfwwbJw6k8b50X/nQsBBIolQIBVLHnGRQABBPYILFo44+vyYX3aeYWV6cKWlnXrRxrqa+bPOMnM/s2kvxjGp63vddkPgt6Sa1vueXjTSDOg3ngCJ598cskBZZvnuIfV5j4hb+GTZb3Zu395z6Nb4vVAqxEuECxaOOsKuf9TjHlwBlYMJJoMX6C+o/N8hTbTFV4ms60u22DyE17cs3+rubryouGPllwPSzo2zxpph5DX/757ajDe5+XDcLwF1v+0lbu/VrJaSdF5idFZW22S5sksL4/+u2eHr+bbXXaHzC5eXlUePS3OhQACRRQgwCoiPkMjgAACkcDpC2ZcYbLoPIWhnoP1kwlTs+9auXJNz0gSPX3BjIWm4NMuP92k0iHUvlPSzeb6csud66JPdBfz64pDKJ9bEEAgrsBrFx5xdOiZr7pUF+MeAqwYSDQZnsDi1Z2Ty/K2xt3/+MTVXjvcH4d+13Z0vkuuI4Lo1HTXlkzGb/VM2WPLjjlgwwsKs9r2zstkmhd4f9jTf4Ue/i6w6Mkxm/nsoedPyINfBdmy3HWzJzw5PKXh392wetv0XG73tFD29zI7TaEmylT9op7NfiP3X8rtbnl4gQI738x2uIfjJBvoic0Bi3TZpWWTpl3VeITtGrAxDRBAoKACBFgF5aVzBBBAYGCBRQtmXiLpnyVNGbj1y7b40c13rHvnSApwFr1q1mvk/mW5nTLEvyHdINdXg0x4w023Pd46RDduQwCBESJw+oJZbzf51yTFOZSZAGuErOtILbPh7q4pfRN1uav/9f/gZefRHwTpYJe+vry64uKk59rQ6v1/8dMXbF7oCqOnkN4m6aD+cdx3yOx+k9a7qeu5f6a8e5g1C979klpc7TJNlXTIs0cabJAHv5PCUGbR6/n9l7ltDHvzP1x+wvRVf/xnDe6ZsH3jUTnPlDTPq3g+EEtirvXt3TWhhXWB6wiXDpD0+r31G4Z+5op5lb+uucmzkw/sOtcCXStTj9wC6Tmn4V3h+5urp393eH1wNwIIJCFAgJWEIn0ggAACwxComT/z/W5a+vy/eA6yL5N+2HLHuncM8raiNF+6VMEtN856dd793yRFB3MP5f+HtgXSEi+bcE9LS1t0DhIXAgiMYoGampnjvEcfe/bnxadjTpMAKyYUzYYmUNfe+a8yvVeu8fvoIfoa4UQ33bi8qmLx0EZ6+btqWze80jKZf5arQu6HyexoDfAks5lC972EbfGK22lSq2tPIPbc/4EHbpqi5/rtlPSgh/aIBb4o0K6L8jb+wx7qsXGeXdYX9NVK9lRTdcWN9e2dH1Eu1+TZzD8qZz9pPq7i9tffv37iuNKys83zsz16Giw6ML0/bPOZA5XnYVBnQfiB/nqkgxM4Eyuy2mWmiZIeN/cPN1VXNHMY/0ArwZ8jUHiBofziUPiqGAEBBBAYQwKLFsy8cM8vZtG/dA36GikBVnSG0aTSzndK/knJDh/0RJ+7ocOkc1vuWBf9DXB03gUXAgiMcoGa+Ued5Rb+qP/pkHgXAVY8J1oNQSB6dbA0p5WSFsa8fWtzdcVQn7B+yRB17V3HyX2FpMNkSuCMp5iziNPMfacs2CX5FJkeketQSdHxBp1mVu7yXrk2y3WYAut0Dw+zvC5WidW7h98IwqAuKNGncr3ZcRbkPy2F0Vdo47wCGB2SH42VzGXRv19YKPeMTF8vzef/pXHegfyFWTK69ILAsAQIsIbFx80IIIDA8AXGSoC1aMHM/5X02hhfEHtZVDP7XLbHruDQ7uHvOXpAYKQINDQos+EPs94m9yjAinsRYMWVot2gBeraO69+9qmcd0nKxLnZAj+raU7lr+K0HajNG1s3HFwSZNZET3YN1HYE/fluyZ4OZO90Cz/osnvkfqnJxrt8b2eD/jYwvzQfWo2ZojNEJyc2X1dO5tdKdoFLP+3Llr9z5WwbUWeMJmZBRwikUIAAK4WLQkkIIDC2BEZ7gFVTM3eS9+xaI/lzZ3MM/toVmN5aedi66xsblR/87dyBAAIjVMAWLZwxX67fSBYrLNgzTwKsEbrgaS+7rqPzLZJ9Ue7RK3sxL9/eXF0ZneE07Ku+vTv64uHaYXc0kjtw/W+Q94s9mznIFV4h6ZTkpmM90VNXJv3Irf9MsR82V1e8P7n+6QkBBIYrQIA1XEHuRwABBIYpMFoDrOiVwYmZTYdbxn4p6aghMEVh1QbJP3jzHY8tG8L93IIAAiNYoKZm5lT12Fdc/tJDp/c9LwKsEbzuaS69vr3r8y6PPrwyqCuJrxCe+/Cm6jCnz8usflCDj4zG0VeFo/9UFrNcc/u2TK8JpSdN+vG0cdOuu2aW7S5mTYyNAAIvFiDAYkcggAACRRYYjQHWmaceVtEXlL7KzL8o/dnnruN575T5veb+pZY7Hr8+3i20QgCB0SIQffDhphtnvVvu0etag70IsAYrRvtYAsUMsOraO6NznuKeAxdrPvunkfdErwhKeu4wdtMuc2Vlyrj7LSab5rLH5eEfZFb0p52aqsoDM+OMzf2zORgFgUELEGANmowbEEAAgWQFRluAdfqpM2ZZNniPXG+XfCiHtW+R+Y9M9oOW29fdl6w2vSGAQNoFoq8Oarfe4aZvD7FWAqwhwnHb3gUa3DO9q7q+INdHB+s03Cew6to7owPjfyBpzmDHLnZ7l29UqGstsIv21BJ9rXBc9B+XPmayY939SDNFr2UeW8x6TfpFSVX54kYzjiso5kIwNgL7ECDAYnsggAACRRYYTQHWaxcecXSozOfctUTShCHQ7jbp4yrTD1ta1m0ewv3cMoDAaxcec7R7/lVuvtfXOl3hH8JM5re/+c3aBwAtuoCdeeph5X3jysqDXPj8wc1h6D3ZINjZY6Vdt922alvRq0yogJpXHXVKmM/Xmdm/9D+rMbSLAOulblZTM3diGPZMC3K9U6RM/9frLDC3UJt7g/zWs856fMvSpQqHRj767+o/QD0TfFlufzOo2Zq5mf4/e2ceH2dV/f/Puc8kaVPa0o1CaZtJW7agbBWSSdtkUqBYAQGxiD/wKwKioCyCCIJI2WQTvmwKKiB+RRSqCEWsIG0nSZNJgYoCbVnaZtKVblC6pMlknnt+vUmopSSZeZ55ZjIzOfelf9C559xz3/fJ8nxy7jmXPXfI0Icc2XVOnrFqVf/otsIXoGgqmN1+TbhZ2isbU6R9KcBHe+UwVX5Y28fMPny/N1LlX/wKASGQPIFs/CaY/K7FgxAQAkIggwjkiIBFwcDo8QzfgwBOcvfiyTGQOr+qvvEPMyEvUV4+osFy/1EMfB2goeD2rLgjemw5TtgIxmIQLWPmTUqpv4TqVrzuZUzi67MEpgZGHxhD3vFE+guA6t8uMLD5Hw8iYBAD7f/WMShKQCuDt4Joxyf/yszbleLXo+z7Z3398g3ZwrmiYvwY1WafA9ApDD4WQH4SsfdpAWvyccVH+iwOMtHndj8tHc+ReX4GgjAA5gpXxzdqZtA2gE39oe0g+q+AxXiPoV+pCTfJCz0znfbe5tOh6b5dmVBjnT+b/N7zhw13nD01Y/GqoVFrwJXQ+goQ5VLnQecIU2xBhFu3rNt6W6iqWGpepZi1uBcCyRAQASsZemIrBISAEPCAQC4IWBWlxdNI8S0AjnOJ5N+a+Ce19U0vurQXsy4IBCePncw2XQS0v8ge1nltwymrnWC8B4WlzHyXvMw6xdfjfJpaPmacrX1XEpmuZrQPQxcBZDp2dtc+Pl4AURDWgxEhoJmB9Ur57ppft2xxPMPuPq+cVDyFbD0N1H7t5zNDA0+5eS6mT59QsONDu5KUPhcgc32oBMC+buPcw65PCVhTphQdoNroGyCaQuA8BkaAaSyIky2I/RGAJgLWM7CTwS+0wf5jOLx6pwdnlFUuTn9/y3iO2abj3RluAleKpvz1kKELErY1gtnSDy8gonO5I3NpUMK2MtEpgR1E6g7sxEPPHT1EMr+d0pP5QiDNBETASjNwWU4ICAEhsDeBbBewKsv9d4JxDoAD3ZwuET0KqPtD9cvNC3bGFk41dXlUlMs1uypK7wZNhw35qkccuHzprFlIuCZHsHTCaLbabgToJDD2T0IM2SNuigG8Boz7oxR7JNGX2EmTDhlo6ZYZ6lPZQ+5xJGJJ4Hfmh1fOTWRub82pCPi/o4BLuaMWjPna6VIc8iC+NgCrAWxj8MuqgG4IhSKOMgwqA/6/ADyNQF3/3si4INQQeTperFPLi4ts5u8Q0YnM7dlAqjOzbD9vntHdEawj4sfA+CBeTMl+blk8Z+6ClSuS9ePUvqPIvf+bYFzVma1mGBqRI1W/22sQfwimjQD+rSy6c/6Cxv84jTtb53/5nc1fJOZnAdojCzLB3TDveL5k+D4Jzm6f9uV3PjyHGPcBrkVI8/MiijR+33Wyv0yYS8CHIHpaAX+IwX5z9qEjcuYqdibwlRiEQKoIpOqHXKriFb9CQAgIgZwjkM0CVmXAPx+AKS7r6rqPIlwTpYKH6+re3Z7J4pV56ExnxZjy3Q5F/5PWh5BxWeG+vt/NmbOsNZF1KwLjPk/g+g5BhNuvCXk6CK3QaKpuiCR0HWby5HFjLVs3gDDU0zh6cEZMT4bCjRemaz0n61SWF18K8NVgGMGhwImtB3ONmNUCxotsWz+qeW35qng+K8vHHQvo34JxeHdzmfncmoamP8T1VVY0HUSmELXJMEvl76BGCG8DpV4QV8DX5tdHno+3d68+bxeuXvI/CeDkzu+7qRI+ewrZiCMtDLytGGeHGiIRr/aXqX5OW7rxVEDNdhMfU96hsw8d9G6itqe8u/5Ii30PgjElERvW/DyBrovmtwvVUDstKz9v+4iWj3d+kD94yCUA3Z6Inz42p42B37b5hl42ZwKikK6Dfez4ZbvZTCCVvzxkMxeJXQgIASGQNgJZKGBRIDC6XwHyZjP4BBegGIQoM2bWhCN3Zrpw9cn+ghMPHs550btA+JaLPbs3IVxSONj3eDwB69SJowq3FRTczMwmIyMdo4UKCkeEQkuM+NjtMFk3mnkRA8PSEZRZg4DfhcKR89K1Xrx1Jk6cmDcof3M5E+5gRlm8+en6nID7fJb635hv7NpQKBTrYl0Klhf/nplNhmW3I1EBa0p50ckKeAJMyV5tSxeiuOsw85k1DU3Pxp2YxATz/Ozn+7h/sxW7H6aWHadd+Ow5euZnY1a/806se3dHrtYvPG3ph6cC7ErAytdDC2YdTiYbKu44Y+nGgzWp34N7vo5PoDYmriGbr3vu8OGvxnUMYMbij4e2qFhVHqvXbdJ7Nuiw2p8pgmW+fbb7BpsrzEaoNP+WKyMK5igRrSNF5zu60pkrBGQfQiAHCIiAlQOHKFsQAkIguwlkk4BlrtHpVj6MQHcAmOaCvE1AhInur65vNAXfs2ZksoBlRKIY89MElKYXKC3TPl1RW9u0rrt1+7iARScFRg/ZydbFRHRTpr4MMuhCsK6vaWhauuc5VpQVHUZEvwQQ7Om5EgErZQKWCgYPHsot0W+A2q8KurqmnabvCTvBfKaP1b/mLmxcn6Y107LMjPpV/duG9L+AQa5+ZkV90f3mHHSAuXrZ45ixeHF+1Bp1DlibLMXuhg2iCGt+YXbJsB/E85nI52cs2fY5prbvMNiI6/0B/TKgphHwJnc0/DBilhGdTX06lYjPXp9DtAXMa3bHQdQG1rM4Zj82+/Mjc+r57HXWEoAQSDMBEbDSDFyWEwJCQAjsTSBbBKzJk8cOUbb1FYAvo45fah2O9hpK/4TiB6vrmuY4NO716ZkqYAXLx3+O2X4CwDEpvpbV1RmYv2g/EyX7ou5qYvVhAUsFy8eUMNTFYLqk1x/g+AFsJVZnAnpZ55UwVRHw30bANfGeKxGwvBewTIH7li2xMs34ZtqzPuM/K93NMLXVXlBK3zS/bqXrpgHul0+NZXtWFJS5JnqomxVI21977vD9nolne9rizSWssICAIV3NJaL/7MqGfJ981rXPHbTv8nj+vPp8xvvbRkR161nQdDyAwj38mo7DmTEIq8D4qKPhAA8FaP7zhw27OjOCkyiEgBDwkoAIWF7SFF9CQAgIARcEskHACgb9+3IrfgTAvIgPdrFNU4zmkQJl3/LPulVr3dj3tk0mClgVgaKjFeh/NTCFnP1lvBmAeQHaCLAGyFzvM13gBsYTK7o4h5VEdFWovvHPXZ1RXxWwppYXV9jM1wKY3tvProP1zTWn5wl4HGSt1qzvILCptdTjEAHLWwGrvc7VP/yXQ+H7YIyLx7/bzwnvgbEERJvinKCPmMcwyHQqHeV6vQ5DU39sASl1ZahuxaJsuSLe056/vHjD0aSsf7nmoqOHP3/4AUt6sj/1zU2HWnn0bQau7HIe42nL4nuePWT4a67j8NjwtCWbf/OpfCw2GVqUT8BohqmZxymt8UdEmhk1xLwCiueD8N6qbZE3RvU/8GD2Kd/fDhnZZ5oMeHy04k4IZDQBEbAy+ngkOCEgBPoCgUwXsNprK+UX3KXBFzsUSTqOj2CDcRcV+H/aTZ2drDjmTBOwKkrHHURK37arI9jpCXVwI6xjxtOKsEXbvB2Wessiew1rZc5nfwZ93vzlWpkOceBJTg6FgZeQZ327puazRcH7ooBVVTp+olaxRwD6ghOO3czVBDQyaCkBTZrxkVK8uyOlZgwmtBeEnwDgIHSTveEsDl5GUO8y8QmJ1FsSActTAYsqA0U3EdF1zI7rD2kGFuy63l2vCK0EvBGz+NWervia58LU2BqQt2kCSB2riMcxc2F7B1NQSRKNIGpA6ofV9Stez3YRK1kBK14NrFPf3niRsqxTwDwZ9Jnsq3oQ1dJOuuO5o4dscfZ1nN7Zp767dXieauunY2oCM5cS8X5MKIHmg4jwMYhGc0fzimTHmwC/DYatLOueIw/e962ZRDpZp2IvBIRAdhAQASs7zkmiFAJCIIcJZLKAVV4+5nN58F0D5nNdHQFjFRE9sC069P5FixaZDmhZOzJJwAoGR+zDrftcDOLr0P5X7x7HShA9ScyvoWDHK6HQxh6Lrpuuc6T1RCY8nPBhMW+Cwo3V9U2mXtKnRrB0wmio2IJdHZ+KEvaX5MTeLOIeDB48HK1tf2KwuW7jdrSA6P8AvM6sbWKsI6JGFOCDESMi22bNai+u3D6CwZJ9YrGWocq2R4PVaAUMYsV5YEzu7FTnKmPSSeAiYHkjYDGDqsr99zJwhSP+QDMBzzP4FUvzf9Zv2+etJUuWJFQ0vKt1TK1DtKCMFYqJ6Ry3zzKB6jTo4prwirec7CeT5s54hi37iC0n26xdd5rsScA6Y+mHp2jih8EY3cW+24jo8lZryONzDqKEutBmErtv/OeDAR/m5RdbikdbRNtZ80jNGE2gEaSoldk+BEbY6rxiTaCNDJ4LI0Yxm6xgkw1oRPl+xJgDUnM0dAsxN8Kmd61+4GcnDF0jHQQz6dQlFiGQegIiYKWesawgBISAEOiRQKYKWMFy/3ma8d0kCoO/vKvb2EPUj/8ZCkVMbZSsHoHA6KEF8P1Umy5gewxiVqAUdlXrogthVWDs8RrKFPod2wNUJvBfNPC/+VFr8SuLVnyc6AHMBNT88uJzwGxElMQG82/y2qyr915nypSiA1SM/swdGULtgzquoabseklvCliVZUW/B5F5Rhx37zL1W0D8kM1WGD57SW1t0wdusldmzIC1bt24A30xPY6UGsDQtzHjyMQO0vmsRAWsYNm4E5j0A4l2pHT/tdVeb+9j7uiiltLBxOfX1je96MUiwUDxQwz+NoD8BP2ZrJMGJr5BK2vZggUrViZol/C0YMB/qA0cqoA/ufyaXWQRnTmvvrEp4UUzaOKMxRv2abOsx5hxlsuw7Hw9tLCrLoSnLd1krhhfAFBxV98vCPRrXZD/09nj9smZouMXvc55Hw35qBAtMTtaYA3hnbEo+XxHtbNV1Nxm00qL2dwA7Ees99EWhrC2fQq68aNDh68I7fqannkTaOZMybhy+TyKmRDIegIiYGX9EcoGhIAQyHYCmShgVZYX3QOmc9BxNcn5zwrCb31K37pl54hV2Z559cnzZUSBD1cWD29l+nRGSz6QxzHTpWn3sDUduasV+fUATE0Z5/z2dLaXgFV17NjDtU+ZelPdFxRm3sTAfXmsHnXbEcxcHd2an3cVQDcn+DW2DqDLq8ONs/acHwwGfWiJjI5ptfulXCnbsize3c1KxSzLtvgY1rgClLzQ0lsCVrDcfwczvg9gQILMdk9j4HlL+a7nvPymUGhJj1lyDn1TsMxfBEsNh+Y73GbT9LRmogLWtCNGDojtk79/NJaXkLjnI+zHStc63K+Z/j5rvkKztcyFrSMTX2G/tV6cV2V58W1gfRlA+yQWAMWI6TydTzVdXd1NzEfCs1SwdGw5W+qnYJyYsNV/J4YLduw88eU31+9wYdurJmcs3TpMo80Ig3sWL084Jtb8jWNmPfTUzJkzd19xm1HP/aNDP7oSzKbIeNcZkow/sR27QjrmJYxaJgoBIdBHCCT3S3UfgSTbFAJCQAikkkCmCViV5f77wbg4obpKXYLh30dhfyccXm2yrkxB3z43jNj18ccj+3388UCrgGLriNy9/LSD20PAMp3JdmyxLySwaefe3c/wDaTUydtahvwnWfGwclLxFLY5RJRQ63Qm0GWhcONDbg48GIQv/8ORBdEB/U/UgOl+V+LGTwcy/C4Ujpzn1t6N3ZQpE0aoWMwIixXO7E22kH4uCvt/uuvk6Mxft7Np4sRR/QcV5FXZTI931s3yxHWiApbTxSZNGjPKp601Tu0ALNZan1W7cGWPhbNd+E2JSfBY/1Hah0cSz3alWIu2ho0du2zHntdJUxLcf51SMDB6PJPvFjDOdrgWE9lHhOpXve3Qrtenf3nxqgmkCt93Gwj5rAl7dgw8dcnmMiL6BQGfA7ibTDuaPaTfkK89UUxZn7nslpvYCQEhIAS6IyACljwbQkAICIFeJpAhApaaPmXCsGY7dlOneOWGyg4G/akm3HihG+NctqkIFG8lsOnw53zsIWBNLR8z3u4xq4S3+7Sa4DbrygRnsmSs/gOtFuLPa4qdBtBXOjsUxo2dNP1wxNgv3Ddr1qykrm4FA/7TGXw3QLuvHcZdfI8JvSBgUTBQ/BsGX+AkTgCaQfNrwo0nOLRLanpw4qjhnFdwE6j9utqnsgfdOBYByw21DhtTQH1g/uYHGfhOYl5oo8+OHjb31TWbE5vv7awpgeLjFPg+AAGHnnm/0ZG8NApuDsPrevqX39kxCtzyHrnIqjQefYoP+8shw98JMvv2XbZlMsf0/B4CixLwxHOHDUvwWfBki+JECAgBIZBVBETAyqrjkmCFgBDIRQK9LWCZF6h9+n1YBs0/BjDdFWPTrh18f1dFvF35yzGj40vHlsSUWuxqW3sIWJUB/7MAYo0WqQAAIABJREFUzujGT1MBWce9XL98g5t1TAaUio4psrX1NAgT3fgA8JRFdJ0X9W6C5f4/MeOrLmtJpTUDa2r5hPE2x0zm2RedcaO3q8ONn3dm493sYHnRrQz6Hrj9GpPr3wlFwHJ/JhWB4v8B+O4EM+JWEHByKBx5x/2KyVtWlvsvBsN0QB3ixBsp++xQ3aqnndj05twZr384ONpf3wxFl7mNgxnPWDbPZB9NYeBX3fnZdeW8DcQ1zx06LK1ittt9iZ0QEAJCoLcIuP5lpbcClnWFgBAQArlGoDcFLHPVbeOa4q8z+GdgjHHJNkRkX5qN10Nc7texWfBY//7sQ8RVEeROAWvnllgxA0u7WXyNYpw5vyGy0HFwHQZUFfBXaMAUhh/n0oe5MPqegj5/fsPKOtc+Og0rAkXnE+j2zjpsjtylOwOrIuC/lgBTK8xZNhOp46rrV7zmaHMeTw4G/NcycDmA/d26FgHLHTmT7dgyoP9PCDDFvOMOYr5HW5gHRsuADXl1c5Yt65XOdO0/N1b7H2LgIlN6O27g/53wUXU4MtTB/F6devqSzbcw4SdJB8F6E0gN784Pg1YQ6fDzhw531+036QDFgRAQAkIgewiIgJU9ZyWRCgEhkKMEekvAMi8h61cXfZeg7gPY5xQvA5pAz7Zo64KFC5dtdWrfl+YHgwcP55ZoHQgHO953p4DVvKXtbwB19df5NoCvj8J+yG0Npaoyf6km/MLcaHIc36cNbGb6Sk1D4+wk/WBa+fj9WtmeB+Bwp77SKWAZEaK1sPBmEF/pLE5aVh1uNC3ie31Ulhdfuqvx160EDHITjAhYbqgBVWXjJ2ll/wLOO0Q2g/ETgn4r1LDyFXerJ2cVLPWfzQp3AChK1BMDzQyqqg03vpqoTW/OO23p5p0A+qUsBsI7zLyeNf3yhZKhs0DUJ2tGpoyvOBYCQiAnCYiAlZPHKpsSAkIgmwj0hoAVLJ0wmpX9LYAT7TDXFdK1BKsyFF6e8k5f2XSeXcU6vXTCoGYV+w3gohU74RKLY7Nt+FZ1ec2L+cmYpa+pq1u11iUnqiwr/jmIr3CYTdHlcgScEQpHnnMZy6fMKgP+fwE42qmvdApYnTWB/hdAuaM4Nb5TvTDya0c2KZxcWe6/DIz73SwhApYbakBFWdE5RPSkO+v2BhkmI/PW6nDkjy59uDbrrN31AgMnOXBiauPNrg5HTF29jB+pFrCI+AYi6wVfbO3SWYcfHs14IBKgEBACQiADCIiAlQGHICEIASHQtwmkW8CqnFR8Imw+H4QzHV952uOoCNjMjBuon/83oVAo1rdPsefdT5w4qnBgXt51THS9Y06ESwB8vqvi+gyaC9APasIr3nLst9OgavL4idq273XePa/rFfuagBUsH3suszJCVH8nZ0AxHBB6LfKBE5tUz60sL7oSTPc4XUcELKfEOou3522+gAkPO7febWFErHc08IPacOSlJPy4Mq0M+J8CeAZADjJ4eXF1uOlzrhZMs1EKBayFROpPMd324t8OG7FMMq/SfLCynBAQAllNQASsrD4+CV4ICIFcIJBOAatjLb4UoEOSEa92cydaxcC5NfWNNblwFqnaQ0lJSf5+g3d+g8GPOl7DCFgMI3wduJetzYTrd7QOu3fRokVtjv12GnQWZP45gEK3Pva062sCVkWg6AICOT7XmCoYVFf37jYvmHvlY9KkQwb6dPSxDlEi8SECVuKsPpkZCIwemk++a8D4kXPrT1m0gfFodUPECN1pHRXlxdOIYZ6X0Q4WXlIdjji+FuzAvydTz3j3w8laYy7A+Z44/MQJYSmYrsnX616SrCtPyYozISAE+ggBEbD6yEHLNoWAEMhcAukSsCoC/u8Q0a1gHpZMx7HPkCSs8vWnY+fObVyfuZR7N7JgMOjj1pUzAP2Ui0iMzSnYqz4RE/2BLesHtbXLNrrwudskWF58FTMbAcuTIQJWYhgzUcAyV0iDZf4KJsxPbBcds0TAckKrY24wMH4CI/ZwN3XtHDlkNl1g6Wovas85WfjkyWOHbLeVadhwmAO7CJF9aqY3/Tj9nQ9rmXmShz8rTbbcvzRZM2LW4LVzDqJeKcDv4JxkqhAQAkIgIwmIgJWRxyJBCQEh0JcIpFrAaq9V0nFV5T5XXfASO4y1UcQmuC0intgS2TsrOQGLYwBZe71IfQxFt1XXNd6dLJVgoPiHDE7aT7uQAawgRedV1zXWJhuXsc+GGli5lIFlmJ8wcdzgWJ79QyZKuPuaCFjOn/aqScWHaNaPgmmyc+vPWGhm+llNQ+MNHvhy4oIqA/7/tF9xTnjwdgD/Wx1u+mnCJr0w8fSlm99jwJMmC1q1joipgqjd3Ga/fOT+O3phO7KkEBACQiBnCIiAlTNHKRsRAkIgWwmkUsCaNGnMqDztu47B30sDn3diquC4TLsWlYZ9x10iOQGrS/ezqk6KnD1zJnTcxeNM8DIDi4FH8jTNnLvQm2y8TBewAoHR/fPYdxlRezc2R0MTn1Jb3/SiI6M0TQ4Gxp3C4L8m2p1UBCznB1NROu4gUvoRAFOdW3dhQfSz6vpG5zX2kly8MuB/05mAhTYwP13d0PSNJJdOqblHAhbH2mITXjxi5IqUBivOhYAQEAJ9iIAIWH3osGWrQkAIZCaBVAlYFYGiown4PUDpqzdCtCBGsa8l0REvMw8pyai8FbB4OwgPVNc3efKyWlnmvxgEk4E1IMltAkyXVTc0Ppi0n04HmS5gBYP+fjrK3yMmF1cw6c3qcOORXrHy0k/FcUXFZKk7E62FJQKWc/rBoH9fjvLVYLrOuXVWC1iagBdC4cjpnuw7RU6SFrCYm0G0zG7lL/3tqOFrUhSmuBUCQkAI9DkCImD1uSOXDQsBIZBpBFIhYFWUF00lpn94UqjdKTDG31nz92tebWp0apqr8z0VsIhej9G2qXV1mzwpAN4hdJLpQhhMkv9aIro8VN/45yT97DbPdAHLBOr2CqGxZeaSmoampV7x8tJPZXnRJWD6RSI+RcBKhNKn5wSD8KGl6Dwm+o1z68wQsGbMgLVhdfG/AXbUVZCAl0LhyBc92XeKnJy2dNMfADrb1IVzsYSpSTbb8vH9zx40bLULezERAkJACAiBbgiIgCWPhhAQAkKglwl4KWCdcMK4wdHtfBIRP+5JRo0rNmSuiDxJ7PtpaOEy+eXdKEPJFXHf8xRMt8E/V4cj/8/V0XRjVBkoutkUgQbQz6VfBtPDMSv/Wi+vkOa6gEWEl/oP9p02Z86yjCvoHCzzf40JJptuRLxnQgSseIS6/nxKadGZSqknAN7HnYc9rHrhCuGUKRNGqFjMdKA91En82SBgnd740b7cYn8AUIGTvYGxhBWumn3oMPMHJBlCQAgIASHgMQERsDwGKu6EgBAQAk4JeCVgTSkdW6KU+YsxmXpXQ53G4fH8Lcy4rz/FHnwpvPpDj31nnTsPBazNUPYZ1XWrPCmS/gnIqjJ/qSaYbJuJbuAS4T8afGVNfdM8N/bd2eS6gAWglYmur6lvNBlwpktZxoxgmd/PhLsAzIgXlAhY8Qh1/fnU8jHjNXx3MvOZ7jzsttrM4Btrwk0JZcwludZu88py/8Vg3ALAdLZNeGSDgGU2c/rSzT9n4KqEN9b+NUwPPX/Y0Msc2MhUISAEhIAQcEBABCwHsGSqEBACQiAVBLwQsAjq95r0lWBMATDQeZy0DOBXGTidgELn9l1YEFYx87UD9s37SyZmmHiyxwSdeCdg0eqqkxqLvCjevnfoVYGxx2soc52pOMFtdU6jZcR0cahhxSvO7OLPzgYBK1hWdA4T/Rruv24+YqLbRh7Y/8FZs5ZE41NJz4yZM6Hmv+y/HYwfxVtRBKx4hLr/vDJQdAbQXkNtnFsvRhAC47uhhkjErQ83dpWBohcAOnmvDqlxXWWLgPXldzYOJKZXAYqbYUYEzYzXLJ/vimcPGtwQF4JMEAJCQAgIAVcERMByhU2MhIAQEALeEUhWwAJgCsRuBXAwAMtxZIRVRDgrRmqtZWtTGPwCV366Xvh927K+vmDB8n9lWoaJY05JGHgnYOG56nDkjCRC6dE0OMlfxhoPADg2sTVomQbOqQ03vg4k3xFx7zWzQcCaUlZ0DBHdS0BlYsy6nLUZTE8ry/7l/LqVi5Pw46lpZcD/s11ZYj+O51QErHiEuv/cFHNHK2YycBGA/o49mT8UaP5xTUPTHxzbJmEQLPMHWeEhMBw3CckWAcvgOXXxpqmK8DyIerrm2cwad8OiZ2cfOtR0ZZQhBISAEBACKSIgAlaKwIpbISAEhECiBDwQsBJd6rPzmDcR+QKh8PJl5sNg8ODh3Bo111DMtSGvfkZEtK/luNraDza6DzS7Lb0SsBh8TE246Y1U0phaXlwUYxpEpH8NRlk3a72jGOeRsjfNq1+1PFXxZIOANaOkJH/D4OaZiQg9cTjtBPABiH9esL3ldy+/uX5Hqrgm6jdY7j+bGbcD8PdkIwJWokS7ntdZS8oIhRc6zKBtBvCrgh07b0jn8zJ9+oSCnVvsexhsRLc8p7vPKgHr3bXDFRd8sOuqZNd/HGJep2wcb+fx6tmHjvCksYZTnjJfCAgBIdCXCHj1ctKXmMlehYAQEAKeEug1AYvx95hVcPbeRbeDQX8/bqUXAD7Bw41uowL/0FAoFPPQZ9a48krAqg5HzEuUTsfGT504qnCDr9DX1VqDB2+zX355vXl5TmndpmwQsAyfinL/NcS4GUC+B2djCrpHiXHvtrZhty1atMgU7u+VceKkMaOibP0GjC+JgJXaI+gQhWLFDNQlWMOwDZpOLhxq1aTzinZJSUn+8H2bf0wMk63rWLwyFLNJwDq5acsQX7P9FoAD934CWGNmwU66b9YXhn6c2qdDvAsBISAEhMAnBETAkmdBCAgBIdDLBHpBwGoG4YfbW4c92t3L8cSJE/P2yd9UD5Ap6u3Vz4qPqWDH6FBo4/ZeRp725T0RsAit1fURt10C075nLxbMFgFr8uSxQyxbPQLgLC/2vZePFgLfgGjbEzt9hVGfz+K8vNa2ESMibbNmwU7Bep9yWVle9Gswfa1nAYu+XdPQ+IzXsUyaNGaUT1vmirTTsVhrfVbtwpVLnBpmwvzpwQNHN7fk/R+oq6YK1EKEq0L1jU+mM9YZM2BtXO0/iBk3gnB2Mmtnk4AFZjrlrQ/LrDy81PmzUBOjzoJ9+V9K9ns/GQ5iKwSEgBAQAs4JePVS4nxlsRACQkAICIF2AmkWsNYS62+GGlaabnE9ZvIESw8czZQ3F9ReW8ubQXiPbN/xoYXLVnvjMDu8eCFgEeHaUH3kzuzYsTdRZouA1fF1XGwysH4AcE+1cpIHQ7wJTPOY1dO7ru4t8/ls27ZJcx62xGL2lnB4tbmKmBOjrwpYmXR4weCIfRDt52e2Pr+rzuJTXsSWVQKW2TAzzViydYhNeuCzJUOavGAgPoSAEBACQsAdARGw3HETKyEgBISAZwTSI2BRDOBlrPmqmoVNf080+MrSoiooMn/pH5WoTU/zuF00o/mK+cJ0d8zyIn63PrwQsLSPR9XWNq1zG0M22mWTgDXtiJEDWgf0/yPQft3OeTOFJA6IGVFF9E8mflkx3u101cLAehQUrg6FlmRl1qMIWEk8FEmYmgzcgQUbDoHO259Jm4YOppi/ZyPrBCzPdi6OhIAQEAJCIFkCImAlS1DshYAQEAJJEkiDgLUNjPmK9APzwyvnOg23KuC/yAbuJmCQU9su5zN2MOH3Bcq+5Z91q9Z64jPDnXghYFWHIyrVNacyDWM2CViGnSl6rhn3E7Bfr7MkbCGmRQyuIab2rzNWaCWipW3Ie3fv2ne9Hm8XAYiAlb5TMbUP0aY+x8yHEfNQZv4qiErd1rnqKXIRsNJ3rrKSEBACQiDXCIiAlWsnKvsRAkIg6wikWMDaAtC9SuGZ+XWNn2RmOGLUWQ/rBoCu9fBl5gMC3eOL0m9eWbQi5wvgioDl6JHbPTnbBCwTeGV58aUA3w1Ggbtdp9SqBcBrYLxBCh9pxkeWRSH2FS3OxAYLImCl9FlAR8MOnk5ERzJzIYjKwDAZVymttScCVmrPVbwLASEgBHKZgAhYuXy6sjchIASygkDKBCxCKxjfKhi4c/bLL6/fkQyM4FH+fbk/XwfQVQBMJpAXY7kmvqa5dfjs3uy05sVG4vlIXsDi+upw02TJwIpHuuNzAn4XCkfOS2y2t7NMsesNq4uvBPgubz2nxNs2Av7FjEYoalYKv56/oPE/KVnJhVMRsFxAi2MyefLYcUqrGcQYB3B/QAUAnuD9St17FAErnbRlLSEgBIRAbhEQASu3zlN2IwSEQBYSSJGA1UasvhRqWGGuDLIXWI4/7sBhMV/+dWC+0gt/nUrDe0pb589vWB6OV1TeszV7wVGyApZmXFzbEDFd7vrUyMYMLHNA7fWwCvtdDqLbsujATEfDNwFeo0FzN39c+MslS5ZEezN+EbCSp28E1fWri44A1AUKPEED+xLaG3Ps62GHWUeBioDlCJdMFgJCQAgIgT0IiIAlj4MQEAJCoJcJpEDA+jdIXVRdv+I1r7c2efLYIVbMuhXEl3joeyVrdULNwhU525I8WQGLCEeH6iP/9pB5VrjKVgHLwC0tnTCon9V2Lph+kRWw/xukEby3AFgLpqeoH/8yFIqY/077EAHLPfLKQPEMQP8IoEIAAwCM9PhqoHlOXL1HiIDl/lzFUggIASHQ1wm4+sHT16HJ/oWAEBACXhLwUsBi0EM+tN0xL7zaFG32JPNq770GJ44azvl5DwP0Ve840PZB0daRLyxa2+ydz8zxlKyAZRH559U39rn27dksYJmnz9SPG5D34RlE/HTmPI2OIjEZWDsV4Zuc738x3XWyRMBK/Kyml04Y1ExtFzLR9wgYvqtzYD7QXofN89/1ifH0Lq8zmfAAGCcmHmXHTBGwnBKT+UJACAgBIfAJAc9/qAlaISAEhIAQcEbAEwGL0MrMV+2IDv91OupJTZlSdIyy1a/APNHLFyQqKBwYCi3Z7oxg5s9OVsCyLVW0YMGKlZm/U28jzHYB6xMaFWXFXybi+wAaA7DPW0rp8Uag1YjmHT1i3HsfzZoFc90w5UMErK4Rm+8nO3euLszPbxtg2XQRM67uzLJK1ZmYP4ZsB+F10jg/1BCJmIUqA/6/A5judFERsJwSk/lCQAgIASEgApY8A0JACAiBDCHggYC1BYwbqxsiD6RzS8GyonOY1B0Aj/ZqXSZaWUCxwD/rVpkMspwZImC5O8pcEbDM7o8vLR5pK9zAYJO5aDJkLHdUeteKFM5GHqpDocgHqY5EBKz/Eja1rDaunHCAjeggRaqSCfcTkJfiM9gKYA2A9VHEzgyHV3+453oiYKWYvrgXAkJACAiBzxCQDCx5KISAEBACvUwgWQGrNzuuVZT5byTCNQD6e4TRBniOBfu788KrzYtTTgwRsNwdYy4JWJ8QCJYXf5WZvw4gAOAAd2R61aoNwN8Y6saa8Iq3UhmJCFjAtGkjB+zc2u8Qn7KKNfT3wDwFoFRm8ZnzXQHQKoBrqQB3hUKRlq7OWQSsVD794lsICAEhIAS6IiACljwXQkAICIFeJpDNApZBFwwU3c0g05lQeYRyG4F/VQD79pf2+ou/R/7T7iYZAYuBD32IHZFLgl6iB5CLAtYne68sL/42wOUAysHtXeGyZjCgCVioGD+Y3xBZmKrA+7KANX36hILWj+1SDVS0Z+0xjkwVZ9MBloBVzDDdYDeA6W+FQ62aOXOWtfa0pghYKTwRcS0EhIAQEAJdEhABSx4MISAEhEAvE8h2Acvgqywvug1M13mIch2Bb2uF/Xg4vHqnh357xVUyAhYI8yk//6xQ6L1NvRJ8Ly6aywJWu/gbDPrQGjkFRF8A4ygGT/UwmzHVJ6dBVKc0X50qEauvCljBgP9QEM7bJSidBOCoFB6kuar9NEAfEfH7vlY155VFKz5OdD0RsBIlJfOEgBAQAkLAKwIiYHlFUvwIASEgBFwSyAUBq6SkJH/E4OZrdxV0v8klhs+YEbAcjOtHjIn8OV1Fo72KfW8/SQpYv81rVT9w8mKZqn2k22+uC1if8DT1jdavKjqYlPoCNA8n4pOZaDK4vYtcJg8boDnaZ19TW7tyideB9jUBixlUFfDfzgrHuOnulxB/4k3Q6hkifpMIH3B+4Vy3jTNEwEqIuEwSAkJACAgBDwmIgOUhTHElBISAEHBDIBcELLPv9jbuVts1HmdirQDz96sbmv4BwHTCysqRlIAF3FywY+ddL7+5fkdWbj6JoPuKgLUnohklJfkbBzePA6vRRNpi4mOZ6cwUZ+IkcUrYuesrc2bMKni4ru7dbck42tu2LwlYk48dO86y1E9AODsFWXjme8eLivlpW6lN/aDeebl+ucno1MmclwhYydATWyEgBISAEHBDQAQsN9TERggIASHgIYFcEbB2ZV9RRUWRn9roNgCmSLVXYy1pnBlaGGnwymG6/SQjYBHoUhTwo90VUk73XtK5Xl8UsPbmGwyW7IOW5uFk6QHmM7ZxABN9CaCzAIwyX3fpPJMu1yLapDSf4vVVwr4iYAUD/tMZuJqBLxCQ7+F5rlXA+Qw0WZo+Gjq2cZOX2awiYHl4UuJKCAgBISAEEiLQ+7/0JBSmTBICQkAI5C6BHBKwzCGZKzAVGrgXwDFenRoDzdDqqJqFK973ymc6/SQjYIFwSeFg3+PxCiqncz/pWiuTBaxgED5759iDLR8d3RMPzVhXU980z0NmavqECXk7R+fn7dwZbW+cMIDaJtjAdwF8BUTDPFzLias3tI9Prq1tWufEqKe5fUHACpb5v8aEOwCM9aoRBgO/UzFciwGF20OhJc3JZlp1d0YiYHn1pIsfISAEhIAQSJSACFiJkpJ5QkAICIEUEcgxAaudUkWg6HxCeybW/l5hY2Brnt02bu6razZ75TNdfkTAckc6kwWsaUeMHNA6sPASaL6rp90R8FIoHPmiOwLurGbMmGFtWPt6ObP+DjGdCKCfEZcZKCAgL1VZW0rpz82vW7nYXdSftcpxAUtVlY+brrV+GIQxSTKzAbSA8ZiP6WdzFzauT9JfQuYiYCWESSYJASEgBISAhwREwPIQprgSAkJACLghkIsCVruIVVZ0PRH9EMC+brh0Y/OvNrKm19cv3+Chz5S7EgHLHeJcELB2NRsMUQHOCIUiW9xR8Mbq1ImjCrfm5X8fxF8DqBDACABDvMr66Yzy31TgPzYUCsW8iDqXBaxgYPQEwLqPQScnwcrUBTR1x/5BhNtD9ZF/J+HLsakIWI6RiYEQEAJCQAgkSUAErCQBirkQEAJCIFkCuSpgGS7BsqJbmXA5QPsky2kP+//z2W1XZlMmlghY7k4/RwSslbuyY66tDkf+6I6C91aTJh0y0GdHz27vdggchI7/m8yspEeL9g1euHDZ1qQdAchVAas9e29A4ZUA35wEJyNeLQHo6epw4y1J+HFtKgKWa3RiKASEgBAQAi4JiIDlEpyYCQEhIAS8IpDLApZhVBkouhmga716QW6/KgP62aDhrfe88MJaU98l44cIWO6OKDcELIox9CM14aZL3VFIrdWUgL9SEb4CxvROISu5BQnnV9dHfpuckw7rHBWwqKK8qIqY5ibFiPB3Bt/jcX01RyGlS8CaOHFi3qCCTdNYqwO6ClCTXlQTbnrDUfAyWQgIASEgBLKSgAhYWXlsErQQEAK5RCDXBaw9RKwbPDs3ok2AvnF76/DfLFq0qM0zvylyJAKWO7C5IWCZilP0aHV947fdUUiPVXsnPOKpYEpOaCOsqK6PjPci6gwSsCgY9A/ubk9tbQV2Xd27202TyHj7njED1obVRf8A6IR4c3v4/B+E2KWh8OplSfhI2jRdAlYwOGIfbh3wgknq7Tpo+mlvZaElDVEcCAEhIASEgCMCImA5wiWThYAQEALeE+gLAtb06RMKmj9uuzvpl+NP4afVDH1jTbjJZHvEfXH0/uQS9ygCVuKs9pyZMwIW8LJtq0sXvLriPXck0mNVWjphUD8Vu2pX17qfJrNidTjiye+XmSJgGQEF0QGPdsdEM6+yVb+b6+reNfWoehxVk8YerrV6O968bj8nbNFMJ9WGG1917cMDw5KSkvwRg5uNqDTNqTunjQ1OmDhucFu+nm1KK4qA5ZS2zBcCQkAI5BYBT37ByC0kshshIASEQHoJ9AUByxCdGhh9oA2feQn0sCMbrQb4R5lUX6irp0cELHdfUzkkYG0F00+qGxofdEcifVZGxCqg2A+IMNPtqrkmYJ0UGD20Bb4eup/S2z47GkykLl9loPg1gL/gli0xfXtb29Df9XbmacWx48fAp/9I4ElO9+JUwJo8+fNDLHvb8wCmiIDllLbMFwJCQAjkFgERsHLrPGU3QkAIZCGBviJgmYtUwVJ/KSv8CUCRh0e1gZm+XdPQaP5Cn5FDBCx3x5JDAhaYMbOmIXKTOxLptWrPfGJ1E5gudLOyCFjdU6sM+N1nizKW2FqdkQmZfJUB/48BXAOg26uV3VEQAcvNV5XYCAEhIASEgCEgApY8B0JACAiBXibQhwQsk9KhQoFxX9LQTxNQ6Bl6ok3M+rSacFO9Zz49dCQCljuYuSRggVBLpK4M1a143R2NtFpRMFB0CYMecrNqrglYx08eOy5mq+U9sPi3z247IV4GVjDgP5SBpW6YdtjQWVXhxr/MBLR7H95YVgb8vwJwkRtvTgWs40uLR7Yp/KX7bC+pgeXmHMRGCAgBIZCNBETAysZTk5iFgBDIKQJ9ScD65OAqAsX/Q+BHAPT36jAJvFiRPm1e/aqeXjS9Ws6RHxGwHOHaPTmnBKx2/YEuqq5vNNdo3WfhuEPp2Gry5HFjLVvfDeAsp8Y6yqNqFzWtc2q39/yMqYFV7j+KGT10uaNa27JPW7Bg5Uc97TkY8D/CwHdccmFNhkNrAAAgAElEQVQwnVbd0GjqTvXqaK9/Naj5ERC+5SYQpwJWRcX4MRSznwGjrOv1RMBycw5iIwSEgBDIRgIiYGXjqUnMQkAI5BSBvihgmQMMBoq/z+BbAOzr4YE+57P7XTj31Xd6qFfj4WoJuhIBK0FQe03LOQGL8Sfbp65ZsGDFSndE0mtVGfD/DIC5KuZo5FoGVkVp0ZdI0YvdQWDgcVsVXBGviHtlwG9Evf0dweyczMAGEH+9pr5pnht7L22qyoq/rMF3g3CwG79OBayqgL9SAw8DOEwELDfExUYICAEhkDsERMDKnbOUnQgBIZClBPqqgGWOqzJQfDXA1wIY6tXxEeHOga3Rm19YtLbZK5/J+hEByx3BnBOw2lOv+IKRHw94ctaSJVF3VNJnJQJWB+uKMv+NPRW1N/XN2ih2Vzi8emdPp5OMgAXgDVL2RaG6Vb16BXXixIl5A/M23chE17t9Ep0KWMGyoguZ6GYAB4iA5Za62AkBISAEcoOACFi5cY6yCyEgBLKYQF8WsDpehjZfx4SrAAz06hiZ+Icjtwx4MFNEAhGw3J1sLgpYAP7FefzVmpqmRndU0mclAlYH68qAv9roWN2T56/sN7pp9qxZsFMlYBHwHBC7OhRevSx9T8BnVwqa65Qa94JQ5TYOpwJWZbn/TjAu7f7KuVwhdHsWYicEhIAQyDYCImBl24lJvEJACOQcgb4sYJnDnF46YVAz2beDTEFg9nl0wDvBuL5wk++Xc5Yta/XIp2s3ImC5Q5ejApbpoPOr/vv6Lp8zp/efzTiCi1wh7BCw1gAY1R0rDSqtDTe+Gu8pTyYDiwjPa1tdXbNwxfvx1knV55MmHTLQsluv7CkbLZG1HQtYAf9jAM7vxjcz8w01DU23JbK2zBECQkAICIHsJiACVnafn0QvBIRADhCoKC+6nph+BGCQy+38X3U4cl42FIbubn+mYLTP5scZfLxLBl2ZfQTQ7YUbrQd6W8SaPn1Cwc4tse8ycJ/j/REuKRzsezzTxQ7H+0rAIFcFLLN1Bj9UE24yWSUZO9xkYDF4bU246UAvNpUpRdwzQcAC+G0NdUEiQpkX7LvwQVMCxccq4t+D3dW++sSnxwJWGxg/qW6I3JWifYtbISAEhIAQyCACImBl0GFIKEJACPRNApWBorsAuhxAvhsCRPSHba1Dv7Vo0aI2N/aZYlNRVnQYATUgGu5ZTESbwLirt0WsUyeOKtyanzcToKsd700ErKOdMiPgd6EOUTdlY9oRIwe0Diy8BJpdvTgzELWIfzW/vumylAWZhONgcNRwbs2/s4fMly69M/GtNfVNNySx9G7TTBCwAoHR/fPhM51Nu6m/BKQjAwvg7Qr01fnhyEtesHXqo70TYJv9VwATndruPd9bAYu2g/n66obIA8nGJfZCQAgIASGQ+QREwMr8M5IIhYAQyHECleX++5nxfQKUy60+QwU7LgiFNm53aZ8xZsFJ477AWpurOF7+fNoC0M+2R1t/saiXCrtPnjx2iM+2nmHwCY5hM1+/va3tvt6K3XG8HhrkcgZWJ6YdYPpddUPj9zzE5omrYLn/bAY/CHYmKGufb7/a2mUbvQgiCQFriVL6rPl1KxcnG0dVwH+SBv4IYEh3vhIWsMr8jSD4XcbEYDqtuqHxBZf2rs2CQX8/bkUdgGNcO9nD0KGApSrL/Y+B0Z0g/RY0XVW9sPGfXsQmPoSAEBACQiCzCXj5gpDZO5XohIAQEAIZSqCyrPgXIL4kifBWEOlrQvUr/5yEj0wxpcryojIw1XsZkMl22XVF8948u+3nc19ds9lL34n4Ki8fv18e22/0VEenOz9EeMmKtZ3TG3EnsrdUzukDApbB1wLgqepw5IJUsnTieyag5pcVfw/EjrJamKF3tA3r51U2aBIC1kbN/MXahqZ/Odl3V3MrA/4aAJN7ENUjRNapofrlb8dbqzJQdDVArjL22n0TXRbltkfjdTuMF4fTzysDfvNHhS949YcFJwLWCRPHDW7L178GcFaXcROeKBzs+25fvGLt9BxlvhAQAkIgFwiIgJULpyh7EAJCIGsJzCgpyd+w745fgOnCZDZBRLeF6ht/koyPTLGtmlR8iNY8F4AndXT23BcBIcD6dii8PK2dvKZMKTpAxWitW8a2pYoWLFix0q19NtoFA+NOYfDDAI92Ef+smCq4oK7u3W0ubBMySfYK4V6LMBhPUD9cEgpFTNMBTiiI1EyiqknFp2rNTwPo53CJ66rCkTtnmlt1HowkBCyAuLy6vimcTBimdl3zllgtgGO780PAfZbddmsiAvPUwOgDbfhWJxFTm9I6MH/hykVJ+EjYdNq0kQNat/U3Ap4nmVefLOxEwKos938LDNNMYP9uAv91dTjynYQ3JROFgBAQAkIgqwmIgJXVxyfBCwEhkM0EZsyAtX5N0RXEdKuLF8W9t/649vmu9erqTm9ynVY+fr9W1j8H+BupiYNjDByXH7VWvLJoxcepWePTXquO85+kLfzD7VpE1ucTyfBw6z8T7SrKi58kxtdcdqZsIsK1ofrIn1K1N48FrPYwmfA0Qd0T5ejb6c6y6eREk48bd5Bl2fcAdIpDdlstoiPm1Tc2ObTrdnqngGWEW8upTyY+vqa+aX4SYiBVBopu6qxP2G2DDWY+s6ah6dlE46sM+JMSJ4noBuTzz0OhiMncS8kwXVN1c+MYWPQ3Akq8XsSRgBXw3wTgpz3EIAKW1wck/oSAEBACGUxABKwMPhwJTQgIgdwlYGqKUIueqEn9EMDpnuyU8QDZuD30WmR9Ei9tnoSSjJOqSWMP15peAsjzDKxPxcW4ixW92MZtRiz4MJmYe7INlvmDTHgZQJ7bNQj41bbosEu9uprlNo502XUU9KfHQShzvyb/Pqb0tXV1q1xnvvW0dioErM71PgDhdgv0/Lz6RiPeJCV4OOEXLB//OYZ9CRgXO7Ezc02HzVbtu3HhwmVbndp2N//44w4cZlt5L7GbwuGEh1ts37Vu4zm+tPiIGPGv4jyDLWA6y0ldqoqAv4GA0uQY0VnV4cZZyfno2npqeXFRTKOUiE1G7+dTsQaAEBXgjFAosqUn/9NLJwzaqdpuY9D3u5rHgFagh0Phxi4/T1Hs4lYICAEhIAR6kYAIWL0IX5YWAkKg7xEIlvn9pNREDT0e4BlgMnVFPBtG6GDgX8R4D/3w73gvCJ4t7IEjc12n5ePYFzVQDsaPPHCZiIvNDPqtYjbFniNeMQsGS/ah1uaJmjAOGv8LwuBEgulxDtNlDP1KTUPT0qR9ZagDw4137jgWJsuEEEyy5k4Lgf5ga/ve/ceufHfWLNhebjuFAlZ7mMx4mgjzqACzQ6HIB17G3pWvikDR/yNW54H4RBdrvaU1nVu7sPFNF7bdmpSUlOQPH7zjXAI95sIvE/CVUDjynBNbU/9rXqDoSAV1N4OP78nWZBJp5h84+ZqsKB13ECn9npOYupjLIFxQNS3yu5kzvbmuGZw4ajgKCoJa81eJcEaCXXHXADAF+43QlXiWHGEVafXjUMOKP/TEoaK8eJoCP8CMQ7qeR6uJ+IZQfeSJRHlWlBZ9SZEaFW9+f7aeabZiZ5Km9n1phZU19Y3mDxGfGqYMwMZBO/+n/R9JMxOWJHt1NV5s8rkQEAJCoC8TEAGrL5++7F0ICIGkCZhOXQAOdeDoUGZUAdjPgY2bqW8SuBZEmxwZa4RCDZGQI5vOyYHA6KEF8H0D1H23rp78skZ/EP0/lzWP3IS8p00bgKUEqgFx0kXeNWOwYlQx0eEur8B1uR8melGBXwfjI030ho/bln8cHbkhWzOzTIZNm+UbC8BkXE1gYAgBRjTwLvOD8XcCvcHEO1jxfyyo5ZzXf00otCSprp2pFrB2PwCE3xJosW3bc2oXrlyS7IO+t317hiC4HKSuBXigC/8tIFyzvTX6aCo6ZVaV+Us1ocFFXCDGf0jhxvn1kecTsQ9OPHg48qNnckfB8KlxbZivqmpous9Jza9gED7dWvyPXd+fexTH4q4N2EQ0UwM1NfWNpk6Vq2H+qKLB5xDRWIDOAHhEgo7eBeGXpNUSJv4rwPskaGfEWU0Kv6quj3TbvOTESWNGRbV1C4Dze/A7z7b0VxcsWPlRomsHA8WvtAuThBXE9HfN+gAi+iKDGhRhCzNXABjBWh0MZV9ETJM7s/CWKKjL5odXmPqMu0ewrPgWNtlqzJuI1NOa9TwnV0oTjVvmCQEhIASEQAcBEbDkSRACQkAIJEGgMuD/q2dXAJOIwytTItwUqo/MdONvavmY8TZbrwCu28S7Wbav2mwD0bvEvEYDW4jICHBxB+Xz1enMyqssL/5Nj0ExDwa1F2f2g2GKtafy9xLD6H0Q1oCxEUTNXcXGwKyuMi32nutUwGp/ae/YnYp7UJ+dsJNB9QReDmBRG1nP1dcv3+DCT7tJMOjfV7fgNPNiTsBxnYKh2yuuf7SIfuxl7as999X5feW3AKa42q/JRlX8EmD9vrp+xWtd+ZhSVnSMUuocsDYiTqURMOKtRYTlmujKmrrG2fHm7vU5VQXGTdXQ5ntlssM8028yUKuAl1CAUCK1scwVXSY6WxGPIlYHMPRJAPkcBGOKyN/Ton0vLly4bHtlwG9E/30d2JupSxXx1fPrm17c227SpEMGWrr1ewRc05NfI+jX1Dc6qtXWIWChUhF/tU3pGsUUIE2Pgelnlor9XbP1Qwafy9o6RvXvt45bd5wIkKlxZhPwUCgcueKTeGfOhJr/kt98Hykw50AFqOzf37dTOiI6fBJkuhAQAkLAAYFU/qLoIAyZKgSEgBDITgIiYP333ETAyvxn2EJs9LzwanPtJy0j2YLVaQlyr0UU8VXz65vujbe2UwELwMvEeIqBH4BwZDz/3Xxu6mGZGnfvE9DMTBvJ4ld0G9fUvNrU2J1PI1hxi55CpEzWz6Ea6Ecgc43ZXKVyI6h1LkV/s8i6Yl79MiOspWSYK1rrBzd/i4BH3C/AMSJaDEaXVzEZGAnCYeB2ISKxQfwo5ZMrQbj9qmxr83UAfpzYYnFnRUGIMNMqhfYmFTtAFCHGOhAP0Iz9CSiizrNm8DBAHeoka+qTCBioJuIfR9n+9yeNBoJl/u8y4eG4UX56gum8aQTlmVSAv34ivB1fOrYkpuh+gEzx+J6u+pkGHHdWhyO3O1nXCFgaPEIVoDQUikQrJxVVQtMfwPrG6oaVvwkG/Icy8BRr9bWahSven1I6tkQp9TKB/8GgYkbsiprw6rfMmsFy/0zNuJqAQgD/qg5HJjqJReYKASEgBISAcwIiYDlnJhZCQAgIgd0ERMD678MgAlbmf2GIgBX/jFIlYBHTbRu29r95v0HNo5hgMjqO8iDjzGTgmELYpnB6T13pTHaN6aRnsmT6x6eQ0IwaYnwz1BCJJDQ7iUnBcv9RDHoQzJOTcOOl6SLN+vLahpV1Lp3SlEDxsUT8R2KMc+mjJzNT760VhCi4vTaVya4z4lyyv/eHSfvOCk5ftnbP2luBwOj++fB1mdGYwN5MJqHJ4NKdc40Y5E8g1qW2pSc5uT5o/FcGim4m0BoURB4LhaD3FrBmzCjJ37C6eab28YO1tU3r2gUsSz1F0Lcyq/8D4drq+sgDHb78b5NS57HWJrNPBKwEDlumCAEhIASSJZDsD7Jk1xd7ISAEhEBWExABSwSsbHqARcCKf1opErBMdsw1NQ2Nz5gITPZWS2H/H+66Uujqum78XaR8xls+u1/V3FffSbpeXCKRmqtaoZeKr2Tw3YnMT+UcBqIAHp96UuR7yRRQnzED1sZV/m9A4VHuEJkyeZjMv+pB0ejJLyxa26VQFSz3X8OMO9K0CRNPbXU4Yq57Ohomo29F//7cWTdQ7S1gGWemocicOcvMOXNnBtaTCviBBj1JhF8FpzX+rHrO2KNZqef77+sb37wlZsRjEbAcnYRMFgJCQAi4IyACljtuYiUEhIAQaCcgApYIWNn0pSACVvzTSomARfxodX3Tt/deveLY8WPIF1sCqH5eFvuPv0u3MzgGVo3VDY0Hu/Xg1q6z29vPmNjUIOoVwYcBTcDL1eHIdLf72NsuGPBfwcCdCXb982pZJ362kVIXh+p67hjYeS3SXNEc4MS5y7mbq8OR4S5t9zTrUsDac8InApa5HhgMFH+PgXsAPg/ARaYL5YjRkbs3rPbHRMDy4DTEhRAQAkIgAQIiYCUASaYIASEgBLojIAKWCFjZ9NUhAlb800qBgLWDmO4LNTT+pKvVjy8tHhkj3AriLwE4IIGrU/E3kZoZKxj4Z0048t3UuI/v1XTMY8JdDJxGQH58C09nMAivVNdHpnnqFUBFWdH1RHQl0N7BNVN+N/8IxGta7LxJCxcuM1dU4w2qKvMfpwmmS19KRSwGPVYTbrwwXkAJfO5EwDqmIlD0/wj0IDMeUITpiuxz5tWvWt5Z608ysBIALlOEgBAQAskSyJQfksnuQ+yFgBAQAr1CQAQsEbB65cFzuagIWPHBpUDAqueYdXbNa8tX9bC6qphU9EXSdFVnR8C4XfDi78SrGbwaoGUEXBwKR94116q88uzGT7B8/OeY7RtAOM1R0XU3i3XaMLCVwDXV4aZTk3DTo2lledElYDoXoGN7ORuv1XQIZOCJ/Kh64pVFK0yx9ITG8ccdOCzmy78dzOenLkuOXqkON56YUEBxJpmrqXNf8p+omJ8E6Jbqho7aVnuOqjJ/qSY8XB2OHBMM+vvpVtxOwBUm+8rS9M25CxvXi4DlxWmIDyEgBIRAYgREwEqMk8wSAkJACHRJQASs/2KRIu6Z/0UiAlb8M/JYwIoS8MdQOGKuHMUdkyePHWLFrHNBHARompsucXEXSXgCrQbQwMAL+VF63omQkfASLieeOGnMqKi2fgjg8uS6KCYUwDyAQtXhxlsSmp3EpOOnjC1pi9HFBPo6gGFJuHJhSjGA32bwKwCeqgk3veHCCaomFR+ibb4XhKkA+rnx0YPNXwv39X19zpxlRmRLakwpLzpZMR1IwDEMfItB/wT0swp2TSi8eplxXlnu/xbAATCdxOCblKYlTFwOohsUcLpNbIFRTKBHAawk8M1MWFJd3xROKjgxFgJCQAgIgW4JiIAlD4cQEAJCIAkCwXL/2aYtfRIuMstUIxRqiITcBBUIjB5aAN83QO3XYGRkIIE2Krinru7dbekKzbSZT9daXq3D4JcSeQE1hdhbBxZeAs139fBb1ioQnVNd11jrJD5zrdBW/HUNjCTgm51XC524cDvXdK9bxMwvK6XeRX7eP0Kh9za5dZZiO6oMFP2ESR1JzGemYK03AcxVSj9WWbdy6cz/dslLwVKfdhks839XEw5RwDc49UKW6f7XAOYXFfHC+eGV5gpgUqOirOgwgvo+iM/w4tllhibCkz5NPzIZT0kF12kcLPcbUdl0O9w9zDpa03O1CxvN2SNYXvyTT7LhzGcKWGgzrzTinI/U32zGccxcolTHtU+twQR+tbqhaY4XMYoPISAEhIAQ+CwBEbDkqRACQkAICAEhIASEgEMCwWDQZ+9sKrEIx3VnSkp/NL++6S8OXe+e3l64fHCzqY01UoM/RyAjCBzo1l/XdtTG4HkEPAtCG8DvVE1rWphMhz1v4+vZW3vmJ6xpYEwGMANAXhLrtwJcC1azCfwW+hW+Hgot2Z6EP9emHUXRd5pi8YcCbPb1edfOujSk1cz6CRAafVBvzws3vuql/ykTiw5Q+SgD40qQKkviWmQYxH+Okf5TXd2qtV7GKL6EgBAQAkIg+wiIgJV9ZyYRCwEhIASEgBAQAn2LgCovHz+8QLcdBFL7MHQeMx0BoikAjgKwfwI4GESbwPgPs24gUm8q8FatSSsfVs6va3yvt+tbJbCHLqfMmAFr3bpxB/piOBhKD2fACFpfATA4AZ/rQPQi2/RXS8VaGWoNCiLLQiGYznK9PqZNGzlg59Z+h/iIRjB4NEOdDvBJLoS6LbuSikIgzFaMtTZ42wCd9/acxAq0u+VAVZPGluiYNYoVn0nAdxJyxNgB4qdZ4S/Q1ipVoN8PhSItCdnKJCEgBISAEMhpAiJg5fTxyuaEgBAQAkJACAiBHCRAweCIAW1t/QZZsbwBli+WUEe+NvK15dvRHTt0v21jxy7bMWsWzJXBnBrBIHzAwftSW9swwPbF25wd80VVzPdRaNF7mzNdwJs+YULB9gPahiLKQ3y+jmtrzHkE295H+3iUYhoEoAWMLRpqjaVi5npg57BiHOWPR+wo/HDWkiXReFy8/twUeNd51m6hNaatAT7SYxg0kDVtNiIq2G4XDVkrG9HoptCitRl/Jl5zEn9CQAgIASHQMwERsOQJEQJCQAgIASEgBISAEBAC2UuAZsyA2rgRNGIE+PBZ4HTW7HKJbXfMwSB0tlxZdblXMRMCQkAICAGPCIiA5RFIcSMEhIAQEAJCQAgIASEgBISAEBACQkAICAEhkBoCImClhqt4FQJCQAgIASEgBISAEBACQkAICAEhIASEgBDwiIAIWB6BFDdCQAgIASEgBISAEBACQkAICAEhIASEgBAQAqkhIAJWariKVyEgBISAEBACQkAICAEhIASEgBAQAkJACAgBjwiIgOURSHEjBISAEBACQkAICAEhIASEgBAQAkJACAgBIZAaAiJgpYareBUCQkAICAEhIASEgBAQAkJACAgBISAEhIAQ8IiACFgegRQ3QkAICAEhIASEgBAQAkJACAgBISAEhIAQEAKpISACVmq4ilchIASEgBAQAkJACAgBISAEhIAQEAJCQAgIAY8IiIDlEUhxIwSEgBAQAkJACAgBISAEhIAQEAJCQAgIASGQGgIiYKWGq3gVAkJACAgBISAEhIAQEAJCQAgIASEgBISAEPCIgAhYHoEUN0JACAgBISAEhIAQEAJCQAgIASEgBISAEBACqSEgAlZquIpXISAEhIAQEAJCQAgIASEgBISAEBACQkAICAGPCIiA5RFIcSMEhIAQEAJCQAgIASEgBISAEBACQkAICAEhkBoCImClhqt4FQJCQAgIASEgBISAEBACQkAICAEhIASEgBDwiIAIWB6BFDdCQAgIASEgBISAEBACQkAICAEhIASEgBAQAqkhIAJWariKVyEgBISAEBACQkAICAEhIASEgBAQAkJACAgBjwiIgOURSHEjBISAEBACQkAICAEhIASEgBAQAkJACAgBIZAaAiJgpYareBUCQkAICAEhIASEgBAQAkJACAgBISAEhIAQ8IiACFgegRQ3QkAICAEhIASEgBAQAkJACAgBISAEhIAQEAKpISACVmq4ilchIASEgBAQAkJACAgBISAEhIAQEAJCQAgIAY8IiIDlEUhxIwSEgBAQAkJACAgBISAEhIAQEAJCQAgIASGQGgIiYKWGq3gVAkJACAiB/9+OHRIAAAAwCOvf+iW4WwHEJAQIECBAgAABAgQIECAQCRhYEaQMAQIECBAgQIAAAQIECBAgQIDAR8DA+riqEiBAgAABAgQIECBAgAABAgQIRAIGVgQpQ4AAAQIECBAgQIAAAQIECBAg8BEwsD6uqgQIECBAgAABAgQIECBAgAABApGAgRVByhAgQIAAAQIECBAgQIAAAQIECHwEDKyPqyoBAgQIECBAgAABAgQIECBAgEAkYGBFkDIECBAgQIAAAQIECBAgQIAAAQIfAQPr46pKgAABAgQIECBAgAABAgQIECAQCRhYEaQMAQIECBAgQIAAAQIECBAgQIDAR8DA+riqEiBAgAABAgQIECBAgAABAgQIRAIGVgQpQ4AAAQIECBAgQIAAAQIECBAg8BEwsD6uqgQIECBAgAABAgQIECBAgAABApGAgRVByhAgQIAAAQIECBAgQIAAAQIECHwEDKyPqyoBAgQIECBAgAABAgQIECBAgEAkYGBFkDIECBAgQIAAAQIECBAgQIAAAQIfAQPr46pKgAABAgQIECBAgAABAgQIECAQCRhYEaQMAQIECBAgQIAAAQIECBAgQIDAR8DA+riqEiBAgAABAgQIECBAgAABAgQIRAIGVgQpQ4AAAQIECBAgQIAAAQIECBAg8BEwsD6uqgQIECBAgAABAgQIECBAgAABApGAgRVByhAgQIAAAQIECBAgQIAAAQIECHwEDKyPqyoBAgQIECBAgAABAgQIECBAgEAkYGBFkDIECBAgQIAAAQIECBAgQIAAAQIfAQPr46pKgAABAgQIECBAgAABAgQIECAQCRhYEaQMAQIECBAgQIAAAQIECBAgQIDAR8DA+riqEiBAgAABAgQIECBAgAABAgQIRAIGVgQpQ4AAAQIECBAgQIAAAQIECBAg8BEwsD6uqgQIECBAgAABAgQIECBAgAABApGAgRVByhAgQIAAAQIECBAgQIAAAQIECHwEDKyPqyoBAgQIECBAgAABAgQIECBAgEAkYGBFkDIECBAgQIAAAQIECBAgQIAAAQIfAQPr46pKgAABAgQIECBAgAABAgQIECAQCRhYEaQMAQIECBAgQIAAAQIECBAgQIDAR8DA+riqEiBAgAABAgQIECBAgAABAgQIRAIGVgQpQ4AAAQIECBAgQIAAAQIECBAg8BEwsD6uqgQIECBAgAABAgQIECBAgAABApGAgRVByhAgQIAAAQIECBAgQIAAAQIECHwEDKyPqyoBAgQIECBAgAABAgQIECBAgEAkYGBFkDIECBAgQIAAAQIECBAgQIAAAQIfAQPr46pKgAABAgQIECBAgAABAgQIECAQCRhYEaQMAQIECBAgQIAAAQIECBAgQIDAR8DA+riqEiBAgAABAgQIECBAgAABAgQIRAIGVgQpQ4AAAQIECBAgQIAAAQIECBAg8BEwsD6uqgQIECBAgAABAgQIECBAgAABApGAgRVByhAgQIAAAQIECBAgQIAAAQIECHwEDKyPqyoBAgQIECBAgAABAgQIECBAgEAkYGiPA6UAABeJSURBVGBFkDIECBAgQIAAAQIECBAgQIAAAQIfAQPr46pKgAABAgQIECBAgAABAgQIECAQCRhYEaQMAQIECBAgQIAAAQIECBAgQIDAR8DA+riqEiBAgAABAgQIECBAgAABAgQIRAIGVgQpQ4AAAQIECBAgQIAAAQIECBAg8BEwsD6uqgQIECBAgAABAgQIECBAgAABApGAgRVByhAgQIAAAQIECBAgQIAAAQIECHwEDKyPqyoBAgQIECBAgAABAgQIECBAgEAkYGBFkDIECBAgQIAAAQIECBAgQIAAAQIfAQPr46pKgAABAgQIECBAgAABAgQIECAQCRhYEaQMAQIECBAgQIAAAQIECBAgQIDAR8DA+riqEiBAgAABAgQIECBAgAABAgQIRAIGVgQpQ4AAAQIECBAgQIAAAQIECBAg8BEwsD6uqgQIECBAgAABAgQIECBAgAABApGAgRVByhAgQIAAAQIECBAgQIAAAQIECHwEDKyPqyoBAgQIECBAgAABAgQIECBAgEAkYGBFkDIECBAgQIAAAQIECBAgQIAAAQIfAQPr46pKgAABAgQIECBAgAABAgQIECAQCRhYEaQMAQIECBAgQIAAAQIECBAgQIDAR8DA+riqEiBAgAABAgQIECBAgAABAgQIRAIGVgQpQ4AAAQIECBAgQIAAAQIECBAg8BEwsD6uqgQIECBAgAABAgQIECBAgAABApGAgRVByhAgQIAAAQIECBAgQIAAAQIECHwEDKyPqyoBAgQIECBAgAABAgQIECBAgEAkYGBFkDIECBAgQIAAAQIECBAgQIAAAQIfAQPr46pKgAABAgQIECBAgAABAgQIECAQCRhYEaQMAQIECBAgQIAAAQIECBAgQIDAR8DA+riqEiBAgAABAgQIECBAgAABAgQIRAIGVgQpQ4AAAQIECBAgQIAAAQIECBAg8BEwsD6uqgQIECBAgAABAgQIECBAgAABApGAgRVByhAgQIAAAQIECBAgQIAAAQIECHwEDKyPqyoBAgQIECBAgAABAgQIECBAgEAkYGBFkDIECBAgQIAAAQIECBAgQIAAAQIfAQPr46pKgAABAgQIECBAgAABAgQIECAQCRhYEaQMAQIECBAgQIAAAQIECBAgQIDAR8DA+riqEiBAgAABAgQIECBAgAABAgQIRAIGVgQpQ4AAAQIECBAgQIAAAQIECBAg8BEwsD6uqgQIECBAgAABAgQIECBAgAABApGAgRVByhAgQIAAAQIECBAgQIAAAQIECHwEDKyPqyoBAgQIECBAgAABAgQIECBAgEAkYGBFkDIECBAgQIAAAQIECBAgQIAAAQIfAQPr46pKgAABAgQIECBAgAABAgQIECAQCRhYEaQMAQIECBAgQIAAAQIECBAgQIDAR8DA+riqEiBAgAABAgQIECBAgAABAgQIRAIGVgQpQ4AAAQIECBAgQIAAAQIECBAg8BEwsD6uqgQIECBAgAABAgQIECBAgAABApGAgRVByhAgQIAAAQIECBAgQIAAAQIECHwEDKyPqyoBAgQIECBAgAABAgQIECBAgEAkYGBFkDIECBAgQIAAAQIECBAgQIAAAQIfAQPr46pKgAABAgQIECBAgAABAgQIECAQCRhYEaQMAQIECBAgQIAAAQIECBAgQIDAR8DA+riqEiBAgAABAgQIECBAgAABAgQIRAIGVgQpQ4AAAQIECBAgQIAAAQIECBAg8BEwsD6uqgQIECBAgAABAgQIECBAgAABApGAgRVByhAgQIAAAQIECBAgQIAAAQIECHwEDKyPqyoBAgQIECBAgAABAgQIECBAgEAkYGBFkDIECBAgQIAAAQIECBAgQIAAAQIfAQPr46pKgAABAgQIECBAgAABAgQIECAQCRhYEaQMAQIECBAgQIAAAQIECBAgQIDAR8DA+riqEiBAgAABAgQIECBAgAABAgQIRAIGVgQpQ4AAAQIECBAgQIAAAQIECBAg8BEwsD6uqgQIECBAgAABAgQIECBAgAABApGAgRVByhAgQIAAAQIECBAgQIAAAQIECHwEDKyPqyoBAgQIECBAgAABAgQIECBAgEAkYGBFkDIECBAgQIAAAQIECBAgQIAAAQIfAQPr46pKgAABAgQIECBAgAABAgQIECAQCRhYEaQMAQIECBAgQIAAAQIECBAgQIDAR8DA+riqEiBAgAABAgQIECBAgAABAgQIRAIGVgQpQ4AAAQIECBAgQIAAAQIECBAg8BEwsD6uqgQIECBAgAABAgQIECBAgAABApGAgRVByhAgQIAAAQIECBAgQIAAAQIECHwEDKyPqyoBAgQIECBAgAABAgQIECBAgEAkYGBFkDIECBAgQIAAAQIECBAgQIAAAQIfAQPr46pKgAABAgQIECBAgAABAgQIECAQCRhYEaQMAQIECBAgQIAAAQIECBAgQIDAR8DA+riqEiBAgAABAgQIECBAgAABAgQIRAIGVgQpQ4AAAQIECBAgQIAAAQIECBAg8BEwsD6uqgQIECBAgAABAgQIECBAgAABApGAgRVByhAgQIAAAQIECBAgQIAAAQIECHwEDKyPqyoBAgQIECBAgAABAgQIECBAgEAkYGBFkDIECBAgQIAAAQIECBAgQIAAAQIfAQPr46pKgAABAgQIECBAgAABAgQIECAQCRhYEaQMAQIECBAgQIAAAQIECBAgQIDAR8DA+riqEiBAgAABAgQIECBAgAABAgQIRAIGVgQpQ4AAAQIECBAgQIAAAQIECBAg8BEwsD6uqgQIECBAgAABAgQIECBAgAABApGAgRVByhAgQIAAAQIECBAgQIAAAQIECHwEDKyPqyoBAgQIECBAgAABAgQIECBAgEAkYGBFkDIECBAgQIAAAQIECBAgQIAAAQIfAQPr46pKgAABAgQIECBAgAABAgQIECAQCRhYEaQMAQIECBAgQIAAAQIECBAgQIDAR8DA+riqEiBAgAABAgQIECBAgAABAgQIRAIGVgQpQ4AAAQIECBAgQIAAAQIECBAg8BEwsD6uqgQIECBAgAABAgQIECBAgAABApGAgRVByhAgQIAAAQIECBAgQIAAAQIECHwEDKyPqyoBAgQIECBAgAABAgQIECBAgEAkYGBFkDIECBAgQIAAAQIECBAgQIAAAQIfAQPr46pKgAABAgQIECBAgAABAgQIECAQCRhYEaQMAQIECBAgQIAAAQIECBAgQIDAR8DA+riqEiBAgAABAgQIECBAgAABAgQIRAIGVgQpQ4AAAQIECBAgQIAAAQIECBAg8BEwsD6uqgQIECBAgAABAgQIECBAgAABApGAgRVByhAgQIAAAQIECBAgQIAAAQIECHwEDKyPqyoBAgQIECBAgAABAgQIECBAgEAkYGBFkDIECBAgQIAAAQIECBAgQIAAAQIfAQPr46pKgAABAgQIECBAgAABAgQIECAQCRhYEaQMAQIECBAgQIAAAQIECBAgQIDAR8DA+riqEiBAgAABAgQIECBAgAABAgQIRAIGVgQpQ4AAAQIECBAgQIAAAQIECBAg8BEwsD6uqgQIECBAgAABAgQIECBAgAABApGAgRVByhAgQIAAAQIECBAgQIAAAQIECHwEDKyPqyoBAgQIECBAgAABAgQIECBAgEAkYGBFkDIECBAgQIAAAQIECBAgQIAAAQIfAQPr46pKgAABAgQIECBAgAABAgQIECAQCRhYEaQMAQIECBAgQIAAAQIECBAgQIDAR8DA+riqEiBAgAABAgQIECBAgAABAgQIRAIGVgQpQ4AAAQIECBAgQIAAAQIECBAg8BEwsD6uqgQIECBAgAABAgQIECBAgAABApGAgRVByhAgQIAAAQIECBAgQIAAAQIECHwEDKyPqyoBAgQIECBAgAABAgQIECBAgEAkYGBFkDIECBAgQIAAAQIECBAgQIAAAQIfAQPr46pKgAABAgQIECBAgAABAgQIECAQCRhYEaQMAQIECBAgQIAAAQIECBAgQIDAR8DA+riqEiBAgAABAgQIECBAgAABAgQIRAIGVgQpQ4AAAQIECBAgQIAAAQIECBAg8BEwsD6uqgQIECBAgAABAgQIECBAgAABApGAgRVByhAgQIAAAQIECBAgQIAAAQIECHwEDKyPqyoBAgQIECBAgAABAgQIECBAgEAkYGBFkDIECBAgQIAAAQIECBAgQIAAAQIfAQPr46pKgAABAgQIECBAgAABAgQIECAQCRhYEaQMAQIECBAgQIAAAQIECBAgQIDAR8DA+riqEiBAgAABAgQIECBAgAABAgQIRAIGVgQpQ4AAAQIECBAgQIAAAQIECBAg8BEwsD6uqgQIECBAgAABAgQIECBAgAABApGAgRVByhAgQIAAAQIECBAgQIAAAQIECHwEDKyPqyoBAgQIECBAgAABAgQIECBAgEAkYGBFkDIECBAgQIAAAQIECBAgQIAAAQIfAQPr46pKgAABAgQIECBAgAABAgQIECAQCRhYEaQMAQIECBAgQIAAAQIECBAgQIDAR8DA+riqEiBAgAABAgQIECBAgAABAgQIRAIGVgQpQ4AAAQIECBAgQIAAAQIECBAg8BEwsD6uqgQIECBAgAABAgQIECBAgAABApGAgRVByhAgQIAAAQIECBAgQIAAAQIECHwEDKyPqyoBAgQIECBAgAABAgQIECBAgEAkYGBFkDIECBAgQIAAAQIECBAgQIAAAQIfAQPr46pKgAABAgQIECBAgAABAgQIECAQCRhYEaQMAQIECBAgQIAAAQIECBAgQIDAR8DA+riqEiBAgAABAgQIECBAgAABAgQIRAIGVgQpQ4AAAQIECBAgQIAAAQIECBAg8BEwsD6uqgQIECBAgAABAgQIECBAgAABApGAgRVByhAgQIAAAQIECBAgQIAAAQIECHwEDKyPqyoBAgQIECBAgAABAgQIECBAgEAkYGBFkDIECBAgQIAAAQIECBAgQIAAAQIfAQPr46pKgAABAgQIECBAgAABAgQIECAQCRhYEaQMAQIECBAgQIAAAQIECBAgQIDAR8DA+riqEiBAgAABAgQIECBAgAABAgQIRAIGVgQpQ4AAAQIECBAgQIAAAQIECBAg8BEwsD6uqgQIECBAgAABAgQIECBAgAABApGAgRVByhAgQIAAAQIECBAgQIAAAQIECHwEDKyPqyoBAgQIECBAgAABAgQIECBAgEAkYGBFkDIECBAgQIAAAQIECBAgQIAAAQIfAQPr46pKgAABAgQIECBAgAABAgQIECAQCRhYEaQMAQIECBAgQIAAAQIECBAgQIDAR8DA+riqEiBAgAABAgQIECBAgAABAgQIRAIGVgQpQ4AAAQIECBAgQIAAAQIECBAg8BEwsD6uqgQIECBAgAABAgQIECBAgAABApGAgRVByhAgQIAAAQIECBAgQIAAAQIECHwEDKyPqyoBAgQIECBAgAABAgQIECBAgEAkYGBFkDIECBAgQIAAAQIECBAgQIAAAQIfAQPr46pKgAABAgQIECBAgAABAgQIECAQCRhYEaQMAQIECBAgQIAAAQIECBAgQIDAR8DA+riqEiBAgAABAgQIECBAgAABAgQIRAIGVgQpQ4AAAQIECBAgQIAAAQIECBAg8BEwsD6uqgQIECBAgAABAgQIECBAgAABApGAgRVByhAgQIAAAQIECBAgQIAAAQIECHwEDKyPqyoBAgQIECBAgAABAgQIECBAgEAkYGBFkDIECBAgQIAAAQIECBAgQIAAAQIfAQPr46pKgAABAgQIECBAgAABAgQIECAQCRhYEaQMAQIECBAgQIAAAQIECBAgQIDAR8DA+riqEiBAgAABAgQIECBAgAABAgQIRAIGVgQpQ4AAAQIECBAgQIAAAQIECBAg8BEwsD6uqgQIECBAgAABAgQIECBAgAABApGAgRVByhAgQIAAAQIECBAgQIAAAQIECHwEDKyPqyoBAgQIECBAgAABAgQIECBAgEAkYGBFkDIECBAgQIAAAQIECBAgQIAAAQIfAQPr46pKgAABAgQIECBAgAABAgQIECAQCRhYEaQMAQIECBAgQIAAAQIECBAgQIDAR8DA+riqEiBAgAABAgQIECBAgAABAgQIRAIGVgQpQ4AAAQIECBAgQIAAAQIECBAg8BEwsD6uqgQIECBAgAABAgQIECBAgAABApGAgRVByhAgQIAAAQIECBAgQIAAAQIECHwEDKyPqyoBAgQIECBAgAABAgQIECBAgEAkYGBFkDIECBAgQIAAAQIECBAgQIAAAQIfAQPr46pKgAABAgQIECBAgAABAgQIECAQCRhYEaQMAQIECBAgQIAAAQIECBAgQIDAR8DA+riqEiBAgAABAgQIECBAgAABAgQIRAIGVgQpQ4AAAQIECBAgQIAAAQIECBAg8BEwsD6uqgQIECBAgAABAgQIECBAgAABApGAgRVByhAgQIAAAQIECBAgQIAAAQIECHwEDKyPqyoBAgQIECBAgAABAgQIECBAgEAkYGBFkDIECBAgQIAAAQIECBAgQIAAAQIfAQPr46pKgAABAgQIECBAgAABAgQIECAQCRhYEaQMAQIECBAgQIAAAQIECBAgQIDAR8DA+riqEiBAgAABAgQIECBAgAABAgQIRAIGVgQpQ4AAAQIECBAgQIAAAQIECBAg8BEwsD6uqgQIECBAgAABAgQIECBAgAABApGAgRVByhAgQIAAAQIECBAgQIAAAQIECHwEDKyPqyoBAgQIECBAgAABAgQIECBAgEAkYGBFkDIECBAgQIAAAQIECBAgQIAAAQIfAQPr46pKgAABAgQIECBAgAABAgQIECAQCRhYEaQMAQIECBAgQIAAAQIECBAgQIDAR8DA+riqEiBAgAABAgQIECBAgAABAgQIRAIGVgQpQ4AAAQIECBAgQIAAAQIECBAg8BEwsD6uqgQIECBAgAABAgQIECBAgAABApGAgRVByhAgQIAAAQIECBAgQIAAAQIECHwEDKyPqyoBAgQIECBAgAABAgQIECBAgEAkYGBFkDIECBAgQIAAAQIECBAgQIAAAQIfAQPr46pKgAABAgQIECBAgAABAgQIECAQCRhYEaQMAQIECBAgQIAAAQIECBAgQIDAR8DA+riqEiBAgAABAgQIECBAgAABAgQIRAIGVgQpQ4AAAQIECBAgQIAAAQIECBAg8BEwsD6uqgQIECBAgAABAgQIECBAgAABApGAgRVByhAgQIAAAQIECBAgQIAAAQIECHwEDKyPqyoBAgQIECBAgAABAgQIECBAgEAkYGBFkDIECBAgQIAAAQIECBAgQIAAAQIfAQPr46pKgAABAgQIECBAgAABAgQIECAQCRhYEaQMAQIECBAgQIAAAQIECBAgQIDAR8DA+riqEiBAgAABAgQIECBAgAABAgQIRAIGVgQpQ4AAAQIECBAgQIAAAQIECBAg8BEwsD6uqgQIECBAgAABAgQIECBAgAABApGAgRVByhAgQIAAAQIECBAgQIAAAQIECHwEDKyPqyoBAgQIECBAgAABAgQIECBAgEAkYGBFkDIECBAgQIAAAQIECBAgQIAAAQIfAQPr46pKgAABAgQIECBAgAABAgQIECAQCRhYEaQMAQIECBAgQIAAAQIECBAgQIDAR8DA+riqEiBAgAABAgQIECBAgAABAgQIRAIGVgQpQ4AAAQIECBAgQIAAAQIECBAg8BEwsD6uqgQIECBAgAABAgQIECBAgAABApGAgRVByhAgQIAAAQIECBAgQIAAAQIECHwEDKyPqyoBAgQIECBAgAABAgQIECBAgEAkYGBFkDIECBAgQIAAAQIECBAgQIAAAQIfAQPr46pKgAABAgQIECBAgAABAgQIECAQCRhYEaQMAQIECBAgQIAAAQIECBAgQIDAR8DA+riqEiBAgAABAgQIECBAgAABAgQIRAIGVgQpQ4AAAQIECBAgQIAAAQIECBAg8BEwsD6uqgQIECBAgAABAgQIECBAgAABApGAgRVByhAgQIAAAQIECBAgQIAAAQIECHwEBjUBf79wrJoaAAAAAElFTkSuQmCC;" parent="1" vertex="1">
          <mxGeometry x="633" y="700" width="166.66" height="100" as="geometry" />
        </mxCell>
        <mxCell id="gmsT4IazuOE8jVbqdMjB-1" value="Feedback" style="curved=1;startArrow=none;endArrow=block;exitX=1;exitY=0.5;entryX=1;entryY=0.5;rounded=1;labelBackgroundColor=none;fontColor=default;sketch=1;curveFitting=1;jiggle=2;exitDx=0;exitDy=0;entryDx=0;entryDy=0;" parent="1" source="_YyVbER2g6xaAAMBrMRv-8" target="_YyVbER2g6xaAAMBrMRv-2" edge="1">
          <mxGeometry x="-0.5336" y="10" relative="1" as="geometry">
            <Array as="points">
              <mxPoint x="706" y="677" />
              <mxPoint x="709" y="260" />
            </Array>
            <mxPoint as="offset" />
            <mxPoint x="622" y="699" as="sourcePoint" />
            <mxPoint x="459" y="210" as="targetPoint" />
          </mxGeometry>
        </mxCell>
        <mxCell id="_YyVbER2g6xaAAMBrMRv-5" value="Escalate" style="whiteSpace=wrap;strokeWidth=2;labelBackgroundColor=none;sketch=1;curveFitting=1;jiggle=2;rounded=1;fillColor=#4FD7ED;fillStyle=solid;" parent="1" vertex="1">
          <mxGeometry x="244" y="465" width="75" height="34" as="geometry" />
        </mxCell>
      </root>
    </mxGraphModel>
  </diagram>
</mxfile>
